<?xml version="1.0" encoding="utf-8"?>
<!-- Generator: Adobe Illustrator 16.0.0, SVG Export Plug-In . SVG Version: 6.00 Build 0)  -->
<!DOCTYPE svg PUBLIC "-//W3C//DTD SVG 1.1//EN" "http://www.w3.org/Graphics/SVG/1.1/DTD/svg11.dtd">
<svg version="1.1" id="Camada_1" xmlns="http://www.w3.org/2000/svg" xmlns:xlink="http://www.w3.org/1999/xlink" x="0px" y="0px"
	 width="841.89px" height="322px" viewBox="0 0 841.89 322" enable-background="new 0 0 841.89 322" xml:space="preserve">
<g>
	<g>
		<polygon fill="#424044" points="81.553,158.727 139.252,158.727 139.252,143.698 98.07,143.698 98.07,127.179 134.32,127.179 
			134.32,112.266 98.07,112.266 98.07,95.748 139.252,95.748 139.252,80.721 81.553,80.721 		"/>
		<path fill="#424044" d="M231.475,120.412c-4.245-3.327-10.898-5.851-19.961-7.688c-6.538-1.258-10.782-2.292-12.732-2.982
			c-4.244-1.49-6.309-3.785-6.309-6.883c0-5.622,4.128-8.375,12.503-8.375c6.883,0,15.831,1.721,26.958,5.161l4.015-14.682
			c-9.521-3.556-19.731-5.277-30.629-5.277c-9.29,0-16.632,2.182-22.253,6.538c-5.506,4.245-8.262,10.096-8.262,17.324
			c0,6.541,1.952,11.473,5.85,14.8c3.902,3.324,10.327,5.962,19.16,7.799c1.49,0.342,5.621,1.032,6.996,1.376
			c1.493,0.342,4.933,1.032,6.309,1.605c1.379,0.458,3.902,1.379,4.819,2.293c1.837,1.261,3.097,3.098,3.097,5.625
			c0,5.39-4.931,8.146-14.683,8.146c-9.292-0.116-19.157-2.414-29.709-6.656l-3.902,15.258c11.011,4.472,22.141,6.651,33.266,6.651
			c19.618,0,32.005-8.488,32.005-24.894C238.013,128.787,235.835,123.737,231.475,120.412z"/>
		<polygon fill="#424044" points="268.854,95.861 296.154,95.861 296.154,158.727 312.673,158.727 312.673,95.861 339.975,95.861 
			339.975,80.721 268.854,80.721 		"/>
		<path fill="#424044" d="M511.179,94.947c5.043,0,12.502,1.027,22.482,3.095l2.979-15.489C527.123,80.147,517.942,79,508.999,79
			c-12.966,0-23.52,3.785-31.432,11.241c-7.917,7.457-11.934,17.206-11.934,29.366c0,12.276,4.017,22.141,11.934,29.597
			c5.35,5.038,11.929,8.357,19.619,10.008l-4.484,16.87h1.489c6.84,0,12.961-4.228,15.381-10.623l2.563-5.139
			c7.609-0.292,15.733-1.596,24.506-4.117l-2.979-14.571c-10.67,2.182-18.587,3.327-23.746,3.327
			c-8.028,0-14.455-2.292-19.388-6.996c-4.933-4.704-7.343-10.784-7.343-18.469c0-7.228,2.41-13.194,7.232-17.666
			C495.35,97.237,502.229,94.947,511.179,94.947z"/>
		<path fill="#424044" d="M606.45,68.445l5.164,3.214c7.681,4.475,20.529,0.918,20.529-14.342h-12.502
			c0,2.869-1.032,4.474-4.816,2.755l-5.28-3.098c-7.686-4.472-20.529-0.918-20.529,14.224h12.502
			C601.518,68.445,602.665,66.724,606.45,68.445z"/>
		<path fill="#424044" d="M719.836,79c-12.276,0-22.372,3.787-30.169,11.244c-7.686,7.454-11.586,17.319-11.586,29.479
			c0,12.158,3.9,22.025,11.586,29.484c7.797,7.454,17.893,11.239,30.169,11.239c12.275,0,22.367-3.785,30.053-11.239
			c7.801-7.459,11.701-17.326,11.701-29.484c0-12.16-3.9-22.025-11.701-29.479C742.203,82.787,732.111,79,719.836,79z
			 M737.386,137.963c-4.59,4.703-10.438,6.996-17.55,6.996c-7.117,0-12.966-2.292-17.551-6.996
			c-4.59-4.704-6.885-10.781-6.885-18.24c0-7.454,2.295-13.537,6.885-18.126c4.585-4.701,10.434-6.994,17.551-6.994
			c7.111,0,12.96,2.292,17.55,6.994c4.591,4.59,6.886,10.672,6.886,18.126C744.271,127.182,741.977,133.259,737.386,137.963z"/>
		<path fill="#424044" d="M29.68,28.221V212.26h392.193v85.594h392.192V212.26v-13.262V28.221H29.68z M520.84,264.091
			c-2.049,0.932-4.516,1.399-7.404,1.399c-2.531,0-4.821-0.438-6.88-1.313c-2.057-0.871-3.811-2.094-5.265-3.669
			c-1.45-1.576-2.577-3.463-3.377-5.668c-0.801-2.204-1.198-4.625-1.198-7.272c0-2.643,0.428-5.068,1.283-7.268
			c0.855-2.205,2.062-4.098,3.611-5.683c1.55-1.58,3.407-2.809,5.569-3.685c2.164-0.87,4.55-1.309,7.162-1.309
			c2.577,0,4.802,0.397,6.669,1.198c1.869,0.8,3.53,1.888,4.982,3.256l-1.54,2.18c-0.115,0.166-0.247,0.297-0.393,0.402
			c-0.146,0.106-0.359,0.161-0.637,0.161c-0.214,0-0.438-0.075-0.675-0.231c-0.236-0.156-0.516-0.347-0.843-0.578
			c-0.327-0.227-0.71-0.474-1.152-0.73c-0.438-0.262-0.961-0.508-1.565-0.734c-0.604-0.231-1.306-0.423-2.106-0.579
			c-0.798-0.151-1.721-0.231-2.766-0.231c-1.877,0-3.594,0.322-5.154,0.967c-1.558,0.644-2.898,1.564-4.026,2.753
			c-1.127,1.192-2.003,2.647-2.632,4.358c-0.629,1.717-0.941,3.634-0.941,5.753c0,2.189,0.313,4.137,0.941,5.854
			c0.629,1.711,1.484,3.161,2.572,4.344c1.084,1.183,2.37,2.083,3.854,2.708c1.485,0.618,3.086,0.926,4.797,0.926
			c1.047,0,1.983-0.061,2.816-0.182c0.833-0.12,1.603-0.312,2.313-0.573s1.374-0.594,1.983-0.992c0.613-0.402,1.228-0.88,1.85-1.434
			c0.276-0.247,0.546-0.368,0.808-0.368s0.498,0.106,0.709,0.317l1.862,2.033C524.629,261.866,522.888,263.165,520.84,264.091z
			 M567.466,265.098h-4.776v-15.96H543.79v15.96h-4.771v-35.081h4.771v15.644h18.899v-15.644h4.776V265.098z M610.33,251.337
			c0,2.023-0.322,3.901-0.966,5.632c-0.647,1.731-1.568,3.227-2.766,4.495c-1.2,1.263-2.665,2.255-4.395,2.975
			c-1.731,0.715-3.674,1.077-5.828,1.077s-4.097-0.362-5.825-1.077c-1.729-0.72-3.199-1.712-4.407-2.975
			c-1.208-1.269-2.134-2.764-2.778-4.495c-0.644-1.73-0.966-3.608-0.966-5.632v-21.32h4.724v21.295c0,1.47,0.209,2.819,0.624,4.042
			s1.019,2.275,1.812,3.156c0.793,0.886,1.765,1.575,2.912,2.068c1.152,0.498,2.453,0.75,3.905,0.75
			c1.455,0,2.751-0.247,3.894-0.735s2.108-1.178,2.901-2.059c0.79-0.881,1.395-1.933,1.812-3.155
			c0.416-1.224,0.624-2.572,0.624-4.042v-21.32h4.724V251.337z M647.395,265.098c-0.866,0-1.503-0.337-1.91-1.007l-9.105-12.532
			c-0.279-0.393-0.581-0.675-0.905-0.846c-0.327-0.171-0.818-0.257-1.47-0.257h-3.599v14.642h-4.727v-35.081h9.915
			c2.22,0,4.138,0.222,5.753,0.675c1.616,0.448,2.95,1.097,4.002,1.942c1.054,0.851,1.832,1.873,2.34,3.075
			c0.503,1.198,0.76,2.542,0.76,4.026c0,1.238-0.196,2.396-0.589,3.474s-0.961,2.048-1.701,2.903
			c-0.744,0.856-1.65,1.586-2.718,2.189c-1.069,0.604-2.28,1.063-3.634,1.374c0.587,0.343,1.107,0.841,1.565,1.49l10.232,13.932
			H647.395z M684.375,264.091c-2.049,0.932-4.52,1.399-7.409,1.399c-2.526,0-4.821-0.438-6.877-1.313
			c-2.057-0.871-3.811-2.094-5.263-3.669c-1.454-1.576-2.579-3.463-3.38-5.668c-0.798-2.204-1.2-4.625-1.2-7.272
			c0-2.643,0.431-5.068,1.286-7.268c0.858-2.205,2.062-4.098,3.611-5.683c1.55-1.58,3.407-2.809,5.569-3.685
			c2.161-0.87,4.55-1.309,7.159-1.309c2.582,0,4.804,0.397,6.674,1.198c1.867,0.8,3.528,1.888,4.98,3.256l-1.543,2.18
			c-0.113,0.166-0.244,0.297-0.393,0.402c-0.146,0.106-0.357,0.161-0.634,0.161c-0.212,0-0.438-0.075-0.675-0.231
			c-0.236-0.156-0.519-0.347-0.846-0.578c-0.324-0.227-0.709-0.474-1.147-0.73c-0.442-0.262-0.966-0.508-1.567-0.734
			c-0.604-0.231-1.307-0.423-2.106-0.579c-0.801-0.151-1.722-0.231-2.766-0.231c-1.877,0-3.597,0.322-5.154,0.967
			c-1.558,0.644-2.901,1.564-4.026,2.753c-1.125,1.192-2.003,2.647-2.632,4.358c-0.627,1.717-0.944,3.634-0.944,5.753
			c0,2.189,0.317,4.137,0.944,5.854c0.629,1.711,1.487,3.161,2.569,4.344c1.087,1.183,2.37,2.083,3.857,2.708
			c1.485,0.618,3.083,0.926,4.8,0.926c1.041,0,1.982-0.061,2.813-0.182c0.834-0.12,1.606-0.312,2.315-0.573
			c0.71-0.262,1.369-0.594,1.983-0.992c0.609-0.402,1.229-0.88,1.847-1.434c0.277-0.247,0.547-0.368,0.809-0.368
			c0.259,0,0.495,0.106,0.709,0.317l1.86,2.033C688.165,261.866,686.424,263.165,684.375,264.091z M730.996,265.098h-4.773v-15.96
			h-18.899v15.96h-4.773v-35.081h4.773v15.644h18.899v-15.644h4.773V265.098z M43.064,41.604h757.618v157.273H43.064V41.604z"/>
		<polygon fill="#424044" points="390.392,80.261 354.946,158.724 373.528,158.724 397.962,101.367 422.626,158.724 
			440.981,158.724 405.764,80.261 		"/>
		<polygon fill="#424044" points="603.007,80.261 567.564,158.724 586.146,158.724 610.582,101.367 635.244,158.724 
			653.595,158.724 618.379,80.261 		"/>
		<path fill="#424044" d="M643.279,242.892c0.36-0.846,0.539-1.787,0.539-2.813c0-2.089-0.689-3.664-2.068-4.727
			c-1.38-1.062-3.431-1.59-6.156-1.59h-5.188v13.242h4.968c1.389,0,2.606-0.166,3.661-0.499c1.052-0.337,1.936-0.81,2.645-1.419
			C642.389,244.472,642.922,243.742,643.279,242.892z"/>
	</g>
</g>
</svg>
