<?xml version="1.0" encoding="utf-8"?>
<!-- Generator: Adobe Illustrator 16.0.0, SVG Export Plug-In . SVG Version: 6.00 Build 0)  -->
<!DOCTYPE svg PUBLIC "-//W3C//DTD SVG 1.1//EN" "http://www.w3.org/Graphics/SVG/1.1/DTD/svg11.dtd">
<svg version="1.1" id="Camada_1" xmlns="http://www.w3.org/2000/svg" xmlns:xlink="http://www.w3.org/1999/xlink" x="0px" y="0px"
	 width="357.746px" height="138.028px" viewBox="0 0 357.746 138.028" enable-background="new 0 0 357.746 138.028"
	 xml:space="preserve">
<g>
	<polygon fill="#424044" points="46.81,67.365 69.2,67.365 69.2,61.533 53.22,61.533 53.22,55.123 67.286,55.123 67.286,49.335 
		53.22,49.335 53.22,42.925 69.2,42.925 69.2,37.094 46.81,37.094 	"/>
	<path fill="#424044" d="M104.988,52.497c-1.647-1.291-4.229-2.271-7.746-2.983c-2.537-0.488-4.185-0.89-4.941-1.157
		c-1.646-0.578-2.448-1.469-2.448-2.671c0-2.182,1.603-3.25,4.853-3.25c2.671,0,6.143,0.668,10.461,2.003l1.558-5.697
		c-3.694-1.38-7.656-2.048-11.886-2.048c-3.604,0-6.454,0.847-8.635,2.537c-2.137,1.647-3.206,3.918-3.206,6.723
		c0,2.538,0.757,4.452,2.27,5.743c1.515,1.29,4.008,2.313,7.436,3.026c0.578,0.133,2.181,0.4,2.715,0.534
		c0.579,0.133,1.914,0.4,2.448,0.623c0.535,0.178,1.514,0.535,1.87,0.89c0.713,0.489,1.201,1.202,1.201,2.183
		c0,2.092-1.913,3.161-5.697,3.161c-3.606-0.045-7.435-0.937-11.529-2.583l-1.514,5.921c4.272,1.735,8.592,2.581,12.909,2.581
		c7.612,0,12.42-3.294,12.42-9.66C107.525,55.747,106.68,53.787,104.988,52.497z"/>
	<polygon fill="#424044" points="119.493,42.969 130.087,42.969 130.087,67.365 136.497,67.365 136.497,42.969 147.092,42.969 
		147.092,37.094 119.493,37.094 	"/>
	<path fill="#424044" d="M213.528,42.615c1.957,0,4.852,0.398,8.725,1.201l1.156-6.011c-3.693-0.934-7.256-1.379-10.727-1.379
		c-5.031,0-9.127,1.469-12.197,4.362c-3.072,2.894-4.631,6.677-4.631,11.396c0,4.764,1.559,8.592,4.631,11.485
		c2.076,1.955,4.629,3.243,7.613,3.884l-1.74,6.546h0.578c2.654,0,5.029-1.641,5.969-4.122l0.994-1.994
		c2.953-0.113,6.105-0.619,9.51-1.598l-1.156-5.654c-4.141,0.847-7.213,1.291-9.215,1.291c-3.115,0-5.609-0.89-7.523-2.715
		s-2.85-4.185-2.85-7.167c0-2.805,0.936-5.12,2.807-6.855C207.386,43.503,210.056,42.615,213.528,42.615z"/>
	<path fill="#424044" d="M250.499,32.331l2.004,1.247c2.98,1.736,7.967,0.356,7.967-5.565h-4.852c0,1.113-0.4,1.736-1.869,1.069
		l-2.049-1.202c-2.982-1.735-7.967-0.356-7.967,5.52h4.852C248.585,32.331,249.03,31.663,250.499,32.331z"/>
	<path fill="#424044" d="M294.499,36.426c-4.764,0-8.682,1.47-11.707,4.363c-2.982,2.893-4.496,6.721-4.496,11.439
		c0,4.718,1.514,8.547,4.496,11.441c3.025,2.893,6.943,4.361,11.707,4.361s8.68-1.469,11.662-4.361
		c3.027-2.895,4.541-6.724,4.541-11.441c0-4.719-1.514-8.547-4.541-11.439C303.179,37.896,299.263,36.426,294.499,36.426z
		 M301.31,59.307c-1.781,1.825-4.051,2.715-6.811,2.715c-2.762,0-5.031-0.89-6.811-2.715c-1.781-1.825-2.672-4.184-2.672-7.078
		c0-2.893,0.891-5.253,2.672-7.034c1.779-1.824,4.049-2.714,6.811-2.714c2.76,0,5.029,0.89,6.811,2.714
		c1.781,1.781,2.672,4.142,2.672,7.034C303.981,55.124,303.091,57.482,301.31,59.307z"/>
	<path fill="#424044" d="M26.681,16.721v71.418h180.662v33.168h123.723V88.139v-5.193V16.721H26.681z M232.837,108.35h-2.09V95.051
		h2.09V108.35z M250.676,108.35h-1.88c0-1.273,0.019-1.444,0.019-1.596h-0.038c-0.684,0.721-2.261,1.842-4.521,1.842
		c-3.762,0-6.82-2.754-6.82-6.914c0-4.143,2.945-6.896,6.877-6.896c3.04,0,5.244,1.672,6.08,3.705l-2.053,0.551
		c-0.455-0.836-1.633-2.28-4.104-2.28c-2.773,0-4.691,1.919-4.691,4.921c0,3.02,2.051,4.939,4.863,4.939
		c2.279,0,3.818-1.217,4.313-2.053v-1.481h-3.742v-1.938h5.698V108.35z M262.97,108.35l-2.85-4.959
		c-0.247,0.02-0.779,0.02-1.026,0.02h-1.349v4.939h-2.09V95.051h4.389c3.191,0,5.092,1.615,5.092,4.256
		c0,1.994-1.084,3.229-2.869,3.704l3.211,5.339H262.97z M279.214,108.35h-9.252V95.051h9.195v1.957h-7.105v3.477h5.453v1.957h-5.453
		v3.951h7.162V108.35z M291.032,102.84c0,3.686-1.652,5.756-4.807,5.756c-1.443,0-2.584-0.475-3.42-1.443l1.197-1.634
		c0.589,0.76,1.292,1.103,2.223,1.103c2.014,0,2.697-1.35,2.697-3.934v-7.637h2.109V102.84z M305.548,108.35l-1.234-3.098h-6.365
		l-1.254,3.098h-2.203l5.49-13.299h2.336l5.473,13.299H305.548z M207.343,82.946H31.874V21.915h293.998v61.031H207.343z"/>
	<polygon fill="#424044" points="166.656,36.916 152.901,67.364 160.112,67.364 169.595,45.106 179.165,67.364 186.288,67.364 
		172.622,36.916 	"/>
	<polygon fill="#424044" points="249.163,36.916 235.409,67.364 242.62,67.364 252.103,45.106 261.673,67.364 268.794,67.364 
		255.128,36.916 	"/>
	<path fill="#424044" d="M301.159,97.426h-0.057c-0.02,0.02-0.646,1.539-1.121,2.717l-1.273,3.211h4.845l-1.292-3.211
		C301.786,98.965,301.179,97.446,301.159,97.426z"/>
	<path fill="#424044" d="M262.988,99.402c0-1.614-1.045-2.432-2.85-2.432h-2.394v4.73h2.47
		C261.905,101.701,262.988,101.055,262.988,99.402z"/>
</g>
</svg>
