<?xml version="1.0" encoding="utf-8"?>
<!-- Generator: Adobe Illustrator 16.0.0, SVG Export Plug-In . SVG Version: 6.00 Build 0)  -->
<!DOCTYPE svg PUBLIC "-//W3C//DTD SVG 1.1//EN" "http://www.w3.org/Graphics/SVG/1.1/DTD/svg11.dtd">
<svg version="1.1" id="Camada_1" xmlns="http://www.w3.org/2000/svg" xmlns:xlink="http://www.w3.org/1999/xlink" x="0px" y="0px"
	 width="259.653px" height="126.74px" viewBox="0.871 0.219 259.653 126.74" enable-background="new 0.871 0.219 259.653 126.74"
	 xml:space="preserve">
<g>
	<polygon fill="#23A0CC" points="27.144,14.375 16.311,14.375 16.311,68.439 48.743,68.439 48.743,57.607 27.144,57.607 	"/>
	<rect x="52.772" y="14.375" fill="#23A0CC" width="10.834" height="54.063"/>
	<polygon fill="#23A0CC" points="104.694,14.375 91.881,43.856 79.07,14.375 77.326,14.375 76.89,14.375 69.78,14.375 
		67.633,14.375 91.916,69.446 116.264,14.375 106.974,14.375 	"/>
	<path fill="#23A0CC" d="M153.703,44.125c2.278-3.221,3.42-6.171,3.42-10.196v-1.677c0-5.198-1.511-8.688-5.232-12.409
		c-3.723-3.722-8.854-5.534-14.053-5.534h-17.575l0.033,54.131h10.833V47.311l13.818,21.129h13.215l-12.209-18.814
		C149.509,48.283,151.421,47.344,153.703,44.125z M143.808,38.222c-1.576,1.576-2.717,2.146-4.963,2.146l-7.748-0.034V25.108h6.07
		c2.246,0,5.063,0.57,6.641,2.181c1.577,1.609,2.146,3.086,2.146,5.299C145.955,34.834,145.384,36.645,143.808,38.222z"/>
	<polygon fill="#23A0CC" points="163.198,68.439 174.032,68.439 195.632,68.439 195.632,57.607 174.032,57.607 174.032,46.808 
		190.231,46.808 190.231,36.008 174.032,36.008 174.032,25.175 195.632,25.175 195.632,14.375 163.198,14.375 	"/>
	<path fill="#23A0CC" d="M220.39,37.685c-3.857-1.141-3.488-0.738-6.709-2.816c-1.576-1.007-2.348-2.482-2.348-4.428
		c0-2.984,2.481-5.467,5.467-5.467c2.951,0,5.434,2.482,5.434,5.433h10.9c0-4.493-1.609-8.351-4.83-11.57
		c-3.219-3.22-7.076-4.83-11.57-4.83c-4.527,0-8.385,1.61-11.605,4.83c-3.219,3.22-4.828,7.077-4.828,11.57
		c0,2.985,0.736,5.468,2.214,7.479c2.481,3.387,6.172,6.104,10.161,7.479c3.789,1.309,2.853,0.974,6.742,2.415
		c1.845,0.672,2.75,2.146,2.75,4.461c0,2.985-2.481,5.468-5.467,5.468l0.033,0.066c-3.02,0-5.467-2.447-5.467-5.467h-10.934
		c0,4.528,1.608,8.385,4.83,11.604c3.219,3.22,7.075,4.83,11.604,4.83c4.494,0,8.352-1.61,11.57-4.83
		c3.221-3.221,4.83-7.077,4.83-11.604c0-3.052-0.771-5.567-2.281-7.513C228.304,41.475,224.548,38.892,220.39,37.685z"/>
	<path fill="#23A0CC" d="M244.369,82.828V0.222H0.879v87.591h197.676v39.146h61.969V82.828H244.369z M5.879,82.813V5.222h233.49
		v77.591H5.879z M240.487,116.244h-5.028l-7.228-21.304v3.39h-5.905v17.914h-4.613V98.33h-5.906v-3.838h16.273h0.151h4.504
		l4.093,12.942c0.229,0.766,0.465,1.654,0.706,2.672c0.244,1.017,0.396,1.724,0.453,2.119c0.109-0.912,0.481-2.509,1.117-4.791
		l4.121-12.942h4.655L240.487,116.244z"/>
</g>
</svg>
