<?xml version="1.0" encoding="utf-8"?>
<!-- Generator: Adobe Illustrator 16.0.0, SVG Export Plug-In . SVG Version: 6.00 Build 0)  -->
<!DOCTYPE svg PUBLIC "-//W3C//DTD SVG 1.1//EN" "http://www.w3.org/Graphics/SVG/1.1/DTD/svg11.dtd">
<svg version="1.1" id="Camada_1" xmlns="http://www.w3.org/2000/svg" xmlns:xlink="http://www.w3.org/1999/xlink" x="0px" y="0px"
	 width="236px" height="234px" viewBox="0 0 236 234" enable-background="new 0 0 236 234" xml:space="preserve">
<g>
	<g>
		<path fill="#211915" d="M54.604,94.206V34.308H39.598v74.905h44.933V94.206H54.604z"/>
		<path fill="#211915" d="M109.598,34.308v74.905h15.021V34.308H109.598z"/>
		<path fill="#211915" d="M189.809,34.308l-14.965,34.445l-2.784,6.4l-7.055-16.237L154.31,34.308h-15.85l33.642,76.305
			l7.745-17.515l5.931-13.413l20.063-45.377H189.809z"/>
		<path fill="#211915" d="M74.071,173.212c4.919-1.871,7.581-3.16,10.737-7.619c3.16-4.463,4.74-8.564,4.74-14.137v-2.324
			c0-0.541-0.014-1.067-0.042-1.58c-0.277-6.07-2.244-10.436-6.608-14.979c-0.193-0.211-0.404-0.429-0.611-0.64
			c-5.154-5.154-12.261-7.661-19.466-7.661H38.478l0.038,75h15.021v-29.276l19.136,29.276h18.315L74.071,173.212z M71.093,157.404
			c-2.177,2.188-3.757,2.978-6.875,2.978l-10.737-0.042v-21.103h8.413c3.115,0,7.022,0.79,9.2,3.02
			c2.188,2.233,2.978,4.27,2.978,7.346C74.071,152.721,73.281,155.228,71.093,157.404z"/>
		<path fill="#211915" d="M140.896,139.336v-14.965H95.963v74.901h44.933v-15.004h-29.912v-14.965h22.43v-14.961h-22.43v-15.007
			H140.896z"/>
		<path fill="#211915" d="M191.747,166.52c-3.574-4.6-8.782-8.188-14.547-9.853c-5.334-1.58-4.821-1.025-9.284-3.904
			c-2.188-1.401-3.255-3.438-3.255-6.138c0-4.129,3.434-7.581,7.577-7.581c4.087,0,7.524,3.452,7.524,7.539h15.102
			c0-6.236-2.229-11.573-6.691-16.032c-4.46-4.463-9.811-6.692-16.029-6.692c-6.278,0-11.626,2.229-16.089,6.692
			c-4.459,4.459-6.692,9.796-6.692,16.032c0,4.129,1.025,7.563,3.076,10.361c3.438,4.685,8.55,8.452,14.08,10.365
			c5.249,1.802,3.946,1.345,9.336,3.34c2.563,0.927,3.813,2.977,3.813,6.18c0,4.143-3.438,7.577-7.581,7.577l0.057,0.098
			c-4.186,0-7.581-3.396-7.581-7.577h-15.144c0,6.275,2.229,11.608,6.692,16.071s9.796,6.692,16.074,6.692
			c6.232,0,11.569-2.229,16.029-6.692c4.462-4.463,6.692-9.796,6.692-16.071C194.907,172.699,193.84,169.209,191.747,166.52z"/>
	</g>
	<g>
		<path fill="#211915" d="M219.833,185.172v33.665H16.167V15.159h129.789l-3.009-6.928H9.239v217.537h217.521v-24.635
			L219.833,185.172z"/>
	</g>
</g>
</svg>
