<?xml version="1.0" encoding="utf-8"?>
<!-- Generator: Adobe Illustrator 16.0.0, SVG Export Plug-In . SVG Version: 6.00 Build 0)  -->
<!DOCTYPE svg PUBLIC "-//W3C//DTD SVG 1.1//EN" "http://www.w3.org/Graphics/SVG/1.1/DTD/svg11.dtd">
<svg version="1.1" id="Camada_1" xmlns="http://www.w3.org/2000/svg" xmlns:xlink="http://www.w3.org/1999/xlink" x="0px" y="0px"
	 width="310.484px" height="163.491px" viewBox="0 0 310.484 163.491" enable-background="new 0 0 310.484 163.491"
	 xml:space="preserve">
<g>
	<polygon fill="#EED163" points="40.75,32.943 29.917,32.943 29.917,87.007 62.349,87.007 62.349,76.174 40.75,76.174 	"/>
	<rect x="66.378" y="32.943" fill="#EED163" width="10.834" height="54.064"/>
	<polygon fill="#EED163" points="118.3,32.943 105.488,62.423 92.676,32.943 90.932,32.943 90.497,32.943 83.386,32.943 
		81.24,32.943 105.522,88.014 129.871,32.943 120.581,32.943 	"/>
	<path fill="#EED163" d="M167.307,62.692c2.28-3.22,3.421-6.171,3.421-10.196v-1.677c0-5.198-1.51-8.687-5.232-12.409
		s-8.854-5.534-14.053-5.534h-17.574l0.033,54.131h10.834V65.878l13.817,21.129h13.215l-12.209-18.815
		C163.115,66.851,165.027,65.912,167.307,62.692z M157.413,56.789c-1.576,1.576-2.716,2.146-4.963,2.146l-7.748-0.034V43.675h6.07
		c2.247,0,5.064,0.57,6.641,2.18c1.577,1.61,2.146,3.086,2.146,5.299C159.559,53.401,158.99,55.212,157.413,56.789z"/>
	<polygon fill="#EED163" points="176.804,87.007 187.638,87.007 209.237,87.007 209.237,76.174 187.638,76.174 187.638,65.375 
		203.837,65.375 203.837,54.575 187.638,54.575 187.638,43.742 209.237,43.742 209.237,32.943 176.804,32.943 	"/>
	<path fill="#EED163" d="M233.995,56.252c-3.857-1.141-3.488-0.738-6.708-2.817c-1.576-1.006-2.348-2.482-2.348-4.427
		c0-2.985,2.481-5.467,5.467-5.467c2.951,0,5.434,2.482,5.434,5.433h10.899c0-4.494-1.609-8.351-4.829-11.571
		s-7.077-4.83-11.571-4.83c-4.527,0-8.385,1.61-11.604,4.83s-4.829,7.077-4.829,11.571c0,2.985,0.737,5.467,2.213,7.479
		c2.482,3.387,6.172,6.104,10.163,7.479c3.789,1.308,2.851,0.973,6.741,2.415c1.845,0.671,2.75,2.146,2.75,4.461
		c0,2.985-2.482,5.467-5.467,5.467l0.033,0.067c-3.019,0-5.467-2.448-5.467-5.467h-10.934c0,4.528,1.61,8.385,4.83,11.604
		s7.076,4.83,11.604,4.83c4.494,0,8.351-1.61,11.57-4.83s4.83-7.077,4.83-11.604c0-3.052-0.771-5.567-2.281-7.513
		C241.91,60.042,238.153,57.459,233.995,56.252z"/>
	<path fill="#EED163" d="M257.974,101.396V18.789H14.486v87.591h174.168v39.146h101.917v-44.131H257.974z M19.486,101.38V23.789
		h233.488v77.591H19.486z M219.582,134.812h-5.861l-9.463-16.455h-0.134c0.188,2.906,0.282,4.979,0.282,6.219v10.236h-4.121V113.06
		h5.818l9.447,16.291h0.104c-0.148-2.826-0.223-4.824-0.223-5.995V113.06h4.15V134.812z M236.823,116.839h-7.915v4.775h7.364v3.779
		h-7.364v5.609h7.915v3.809h-12.527V113.06h12.527V116.839z M261.786,134.812h-5.252l-2.946-11.426
		c-0.109-0.407-0.295-1.248-0.558-2.522s-0.415-2.13-0.454-2.566c-0.059,0.536-0.208,1.396-0.446,2.581
		c-0.237,1.186-0.421,2.031-0.55,2.537l-2.932,11.396h-5.236l-5.551-21.752h4.539l2.781,11.873c0.486,2.191,0.838,4.092,1.057,5.698
		c0.06-0.565,0.195-1.44,0.409-2.626c0.213-1.186,0.414-2.105,0.603-2.76l3.169-12.186h4.359l3.169,12.186
		c0.139,0.545,0.313,1.379,0.521,2.499c0.207,1.121,0.366,2.083,0.476,2.887c0.099-0.774,0.258-1.738,0.476-2.894
		c0.219-1.156,0.417-2.091,0.596-2.805l2.768-11.873h4.537L261.786,134.812z M280.016,133.413c-1.413,1.131-3.38,1.695-5.899,1.695
		c-2.32,0-4.374-0.436-6.16-1.309v-4.285c1.469,0.654,2.711,1.116,3.728,1.384c1.017,0.269,1.946,0.401,2.79,0.401
		c1.012,0,1.787-0.193,2.328-0.58s0.811-0.962,0.811-1.726c0-0.427-0.119-0.806-0.357-1.138c-0.237-0.332-0.587-0.652-1.049-0.96
		c-0.461-0.308-1.4-0.798-2.818-1.474c-1.33-0.625-2.326-1.225-2.991-1.8s-1.195-1.245-1.592-2.009
		c-0.397-0.764-0.595-1.656-0.595-2.678c0-1.924,0.652-3.438,1.956-4.538s3.106-1.651,5.408-1.651c1.131,0,2.21,0.134,3.236,0.402
		c1.026,0.268,2.101,0.645,3.221,1.131l-1.487,3.585c-1.16-0.476-2.121-0.808-2.879-0.997c-0.76-0.188-1.506-0.282-2.24-0.282
		c-0.872,0-1.541,0.203-2.008,0.61c-0.467,0.406-0.699,0.937-0.699,1.592c0,0.406,0.094,0.761,0.283,1.063
		c0.188,0.303,0.488,0.595,0.899,0.878s1.386,0.791,2.924,1.525c2.033,0.972,3.427,1.946,4.181,2.923
		c0.754,0.978,1.131,2.175,1.131,3.593C282.136,130.735,281.429,132.282,280.016,133.413z"/>
</g>
</svg>
