<?xml version="1.0" encoding="utf-8"?>
<!-- Generator: Adobe Illustrator 16.0.0, SVG Export Plug-In . SVG Version: 6.00 Build 0)  -->
<!DOCTYPE svg PUBLIC "-//W3C//DTD SVG 1.1//EN" "http://www.w3.org/Graphics/SVG/1.1/DTD/svg11.dtd">
<svg version="1.1" id="Camada_1" xmlns="http://www.w3.org/2000/svg" xmlns:xlink="http://www.w3.org/1999/xlink" x="0px" y="0px"
	 width="612px" height="532.955px" viewBox="0 0 612 532.955" enable-background="new 0 0 612 532.955" xml:space="preserve">
<path d="M58.828,360.467c4.106,0.917,7.73,0.385,10.872-1.608c1.659-1.143,2.625-2.595,2.915-4.362
	c0.29-1.76,0.836-3.477,1.636-5.131c1.664-4.048,3.509-8.563,5.54-13.555c2.036-4.984,4.135-9.933,6.315-14.835
	c2.173-4.904,4.388-9.637,6.654-14.198c2.259-4.562,4.449-8.434,6.565-11.628c3.43-5.692,7.208-11.238,11.324-16.628
	c4.117-5.382,8.315-10.664,12.606-15.852c3.769-4.327,7.827-8.489,12.171-12.471c4.338-3.989,8.908-7.546,13.709-10.681
	c2.74-1.645,4.051-1.731,3.938-0.248c-0.121,1.483-0.904,3.678-2.365,6.582c-1.459,2.91-3.147,5.874-5.063,8.895
	c-1.919,3.017-3.219,5.103-3.902,6.242c-4.925,8.494-9.873,17.117-14.846,25.861c-4.981,8.751-8.306,18.06-9.972,27.925
	c-0.866,4.338-0.941,8.656-0.237,12.964c0.708,4.313,2.201,8.125,4.475,11.432c2.277,3.313,5.338,5.64,9.189,6.992
	c3.845,1.348,8.366,1.246,13.563-0.277c8.105-2.497,15.014-6.643,20.731-12.418c5.709-5.78,10.8-11.893,15.262-18.333
	c1.985-2.818,3.917-5.67,5.824-8.538c1.972,4.905,5.099,9.16,9.397,12.755c6.726,5.603,14.05,8.266,21.98,7.998
	c7.934-0.279,15.765-2.156,23.501-5.654c7.732-3.5,15.074-8.111,22.017-13.832c6.941-5.717,12.753-11.347,17.442-16.869
	c3.198-3.707,6.671-8.021,10.419-12.949c3.741-4.933,8.929-12.581,15.57-22.957c1.197-1.989,2.529-4.199,3.988-6.624
	c0.657-1.089,1.164-2.156,1.56-3.208c0.363-0.527,0.722-1.064,1.06-1.625l3.088-5.128c0.678,5.647,1.694,11.213,3.054,16.692
	c-1.202,1.996-2.505,4.077-3.904,6.243c-1.404,2.164-3.104,4.83-5.104,7.994c-2.002,3.166-0.2,0.69-2.972,5.134
	c-2.77,4.447-0.567,1.129-4.743,7.743c-1.371,2.274-2.847,4.641-4.418,7.094c-1.575,2.448-1.678,4.96-0.312,7.532
	c1.083,2.39,2.947,4.293,5.596,5.7c2.652,1.394,5.345,1.763,8.084,1.081c1.37-0.342,2.372-0.952,2.999-1.837
	c0.632-0.882,1.4-1.927,2.316-3.115c5.659-8.44,4.496-6.287,7.87-11.247c3.37-4.953,2.471-3.495,5.674-8.175
	c3.928,5.091,8.6,9.014,14.017,11.791c5.415,2.776,11.832,3.002,19.255,0.675c6.164-1.532,11.546-4.749,16.146-9.644
	c4.6-4.903,8.728-9.742,12.387-14.531c1.254-1.761,2.657-3.684,4.204-5.767c0.203-0.274,0.424-0.588,0.637-0.883
	c1.56,5.57,4.96,9.934,10.208,13.093c5.986,3.605,12.577,4.27,19.768,1.999c8.56-2.612,15.599-7.206,21.115-13.784
	c5.514-6.582,10.305-13.407,14.368-20.474c1.198-1.992,2.389-4.048,3.563-6.155c1.167-2.11,2.556-4.575,4.159-7.398
	c1.603-2.816,3.408-6.052,5.409-9.703c2.002-3.647,4.432-8.007,7.294-13.081c1.032-1.712,1.76-3.404,2.192-5.091
	c0.427-1.681,0.273-3.524-0.463-5.519c-1.367-3.537-3.903-5.694-7.607-6.474c-3.707-0.774-6.904,0.264-9.589,3.111
	c-1.545,1.597-2.889,3.503-4.03,5.723c-1.146,2.228-2.205,4.307-3.175,6.243c-5.324,9.806-9.385,17.117-12.188,21.933
	c-2.802,4.816-5.436,9.106-7.893,12.864c-0.517,0.857-1.875,2.709-4.075,5.56c-2.202,2.85-4.531,5.433-6.987,7.729
	c-2.459,2.311-4.642,3.517-6.552,3.627c-1.916,0.11-2.749-2.281-2.514-7.194c0.925-8.949,3.409-17.75,7.445-26.384
	c4.034-8.64,8.084-16.973,12.15-25.015c2.056-4.383,4.319-8.944,6.778-13.68c2.464-4.729,5.409-10.188,8.843-16.377
	c3.432-6.176,7.384-13.466,11.847-21.847c4.462-8.375,9.954-18.466,16.478-30.265c10.845-4.146,21.859-8.091,33.054-11.842
	c11.186-3.744,22.63-7.435,34.334-11.072c1.822-0.452,4.109-1.019,6.85-1.698c2.739-0.679,4.451-2.073,5.14-4.186
	c0.401-1.311,0.561-3.106,0.479-5.389c-0.083-2.285-0.403-4.569-0.972-6.853c-0.565-2.278-1.477-4.233-2.728-5.865
	c-1.256-1.625-2.994-2.531-5.217-2.703c-1.26-0.17-2.658,0.055-4.195,0.674c-1.543,0.629-2.885,1.082-4.023,1.366
	c-6.281,2.046-12.773,4.203-19.481,6.474c-6.705,2.271-14.369,5.08-22.99,8.434l13.898-21.628c0.857-1.42,1.87-2.947,3.044-4.573
	c1.173-1.62,1.76-3.402,1.763-5.344c-0.279-3.078-1.613-5.777-4.009-8.095c-2.392-2.314-5.016-3.844-7.864-4.595
	c-1.598-0.567-3.227-0.771-4.876-0.603c-1.658,0.17-3.145,1.023-4.456,2.558c-1.316,1.542-2.487,3.163-3.514,4.874
	c-1.032,1.707-2.181,3.449-3.434,5.213c-5.208,7.355-10.169,14.947-14.883,22.781c-4.724,7.843-9.368,15.724-13.947,23.644
	c-8.392,3.299-15.174,6.009-20.339,8.139c-5.166,2.136-9.29,3.825-12.371,5.073c-3.087,1.253-5.452,2.207-7.11,2.857
	c-1.655,0.649-3.139,1.266-4.45,1.829c-2.171,1.028-4.187,1.949-6.039,2.772c-1.858,0.829-2.813,2.58-2.877,5.259
	c-0.408,5.19,1.612,9.417,6.059,12.675c1.822,1.488,3.601,1.832,5.346,1.035c1.741-0.797,3.492-1.534,5.264-2.22l19.098-6.554
	c-6.752,11.855-13.293,23.842-19.613,35.952c-6.324,12.115-12.434,24.358-18.33,36.73c-1.063,2.313-2.273,5.08-3.619,8.271
	c-0.819,1.168-1.611,2.355-2.344,3.569c-0.944,1.57-1.846,3.067-2.702,4.491c-7.494,11.799-13.729,21.582-18.702,29.365
	c-4.978,7.78-10.267,14.544-15.865,20.302c-5.145,5.638-9.215,7.318-12.205,5.027c-2.992-2.284-5.824-6.852-8.492-13.708
	c9.723-13.557,17.994-25.128,24.83-34.703c6.832-9.568,12.494-17.519,16.983-23.849c4.486-6.323,8.033-11.323,10.636-15.004
	c2.601-3.67,4.628-6.478,6.09-8.416c1.456-1.935,2.399-3.262,2.831-3.979c0.427-0.707,0.813-1.35,1.158-1.923
	c0.912-1.192,1.771-2.377,2.575-3.546c0.8-1.163,1.114-2.579,0.945-4.234c-0.734-2.968-2.23-5.563-4.481-7.797
	c-2.251-2.224-4.8-3.714-7.65-4.461c-3.597-0.803-6.367-0.238-8.303,1.695c-1.375,1.315-2.586,2.769-3.647,4.363
	c-1.054,1.594-2.127,3.134-3.214,4.612c-2.574,3.308-5.165,6.802-7.764,10.473c-2.6,3.677-5.606,7.937-9.003,12.78
	c-3.405,4.847-7.38,10.557-11.925,17.137c-4.544,6.584-9.911,14.521-16.082,23.809c-0.055-5.077,0.028-10.125,0.237-15.145
	c0.207-5.02,0.656-10.038,1.35-15.064c0.231-1.99,0.389-3.785,0.478-5.385c0.089-1.595-0.665-3.165-2.259-4.713
	c-2.681-2.974-6.043-4.802-10.09-5.492c-1.943,0-4.008,0.21-6.205,0.629c-2.199,0.424-3.837,1.379-4.925,2.86
	c-0.347,0.573-0.675,1.202-0.986,1.879c-0.319,0.687-0.719,1.759-1.204,3.211c-0.49,1.457-1.16,3.376-2.021,5.77
	c-0.86,2.395-1.92,5.449-3.182,9.154c-2.636,5.989-5.423,11.833-8.373,17.528c-2.946,5.705-6.138,11.405-9.568,17.098
	c-0.052,0.087-0.09,0.173-0.14,0.261c-0.452,0.656-0.884,1.343-1.275,2.093c-1.231,2.368-2.45,4.552-3.647,6.541
	c-2.631,4.049-6.422,9.535-11.369,16.454c-4.947,6.929-10.536,13.708-16.76,20.346c-6.231,6.635-12.772,12.259-19.625,16.869
	c-6.856,4.606-13.393,6.594-19.608,5.958c-3.483-0.35-6.145-1.323-7.995-2.922c-1.852-1.6-3.179-3.511-3.973-5.74
	c-0.796-2.223-1.094-4.637-0.887-7.236c0.203-2.591,0.679-5.311,1.426-8.169c7.013,0.928,13.863,0.196,20.541-2.193
	c6.681-2.384,13.014-5.648,19.016-9.809c7.823-5.58,14.836-12.469,21.042-20.681c6.199-8.201,10.825-16.919,13.862-26.159
	c1.316-4.445,2.098-9.123,2.334-14.033c0.234-4.904-1.414-9.104-4.945-12.589c-3.871-3.883-8.435-5.901-13.683-6.053
	c-5.251-0.154-10.643,0.824-16.178,2.928c-5.541,2.1-10.79,4.859-15.758,8.275c-4.97,3.413-9.113,6.749-12.426,9.994
	c-4.461,4.501-8.832,9.341-13.116,14.524c-4.292,5.192-8.194,10.705-11.708,16.542c-3.52,5.844-6.552,11.929-9.101,18.255
	c-0.406,1.009-0.766,2.036-1.137,3.057c-0.344,0.523-0.666,1.07-0.963,1.646c-1.145,2.227-2.234,4.189-3.262,5.898l-7.98,13.253
	c-2.059,3.419-4.26,6.998-6.605,10.732c-2.344,3.733-4.779,7.365-7.292,10.899c-2.52,3.532-5.202,6.864-8.06,10
	c-2.857,3.131-5.633,5.637-8.313,7.514c-1.828,1.424-2.973,1.71-3.426,0.851c-0.456-0.854-0.539-2.166-0.25-3.938
	c0.29-1.764,0.82-3.771,1.593-6.032c0.77-2.244,1.445-4.171,2.02-5.773c4.179-9.514,9.055-18.66,14.635-27.446
	c5.577-8.77,10.624-18.206,15.151-28.302c1.028-2.672,2.077-5.542,3.137-8.594c1.06-3.048,1.691-6.111,1.897-9.196
	c0.201-3.075-0.12-6.088-0.97-9.029c-0.852-2.934-2.643-5.523-5.38-7.753c-2.451-2.056-5.332-3.403-8.638-4.036
	c-3.308-0.633-7.501,0.046-12.582,2.036c-7.024,2.958-13.259,6.625-18.717,11.005c-5.453,4.388-10.558,9.23-15.298,14.525
	c-1.423-3.764-4.158-6.722-8.2-8.869c-4.049-2.14-7.844-2.053-11.384,0.281c-1.031,0.744-1.942,1.694-2.743,2.86
	c-0.801,1.172-1.548,2.325-2.231,3.464c-5.893,11.403-10.963,21.508-15.194,30.312c-4.239,8.812-7.857,16.674-10.865,23.605
	c-3.008,6.924-5.599,13.329-7.776,19.195c-2.175,5.874-4.151,11.576-5.931,17.108l-4.561,15.312
	c-0.571,1.594-1.002,3.282-1.291,5.045c-0.288,1.773,0.137,3.482,1.276,5.14C51.675,357.517,54.724,359.543,58.828,360.467z
	 M234.461,234.692c3.887-4.839,8.085-9.397,12.601-13.671c4.514-4.271,9.537-7.941,15.08-11.019c1.309,0.405,1.85,1.849,1.62,4.327
	c-0.236,2.485-1.011,4.977-2.323,7.482c-3.375,6.903-7.984,13.742-13.812,20.52c-5.831,6.783-12.8,11.904-20.905,15.369
	c-3.085,1.256-6.05,1.993-8.903,2.211C222.167,251.076,227.716,242.673,234.461,234.692z"/>
<path d="M415.634,328.186c47.425-8.168,82.051-33.016,104.024-77.368c8.572-17.301,4.821-26.488-6.518-37.564
	c-1.806,1.46-2.866,2.017-3.493,2.884c-3.012,4.166-6.372,8.168-8.766,12.676c-20.104,37.844-50.182,61.406-93.777,65.073
	c-34.019,2.859-55.053,22.022-70.68,51.033c-11.062,20.544-25.569,39.234-38.539,58.753c-0.963-0.532-1.924-1.061-2.887-1.594
	c4.92-26.163,9.84-52.327,15.293-81.329c-8.297,1.865-13.826,2.91-19.247,4.359c-70.576,18.893-141.141,37.812-211.695,56.789
	c-26.225,7.049-30.228,13.124-28.012,43.964c70.125-18.66,139.917-37.23,213.028-56.682c-8.008,42.186-15.594,82.141-23.106,121.716
	c32.253,12.714,32.264,12.72,49.088-12.975c24.399-37.261,50.174-73.721,72.629-112.12
	C375.594,344.227,391.465,332.349,415.634,328.186z"/>
</svg>
