<?xml version="1.0" encoding="utf-8"?>
<!-- Generator: Adobe Illustrator 16.0.0, SVG Export Plug-In . SVG Version: 6.00 Build 0)  -->
<!DOCTYPE svg PUBLIC "-//W3C//DTD SVG 1.1//EN" "http://www.w3.org/Graphics/SVG/1.1/DTD/svg11.dtd">
<svg version="1.1" id="Camada_1" xmlns="http://www.w3.org/2000/svg" xmlns:xlink="http://www.w3.org/1999/xlink" x="0px" y="0px"
	 width="612px" height="200px" viewBox="0 0 612 200" enable-background="new 0 0 612 200" xml:space="preserve">
<g>
	<path fill="#222222" d="M106.054,106.084c0.734-5.233,1.564-10.591,2.495-16.072c0.929-5.479,1.835-10.812,2.715-16
		c5.968-0.488,11.986-1.101,18.054-1.834c6.066-0.734,11.839-1.517,17.32-2.349c5.479-0.83,10.518-1.736,15.119-2.716
		c4.599-0.977,8.367-1.908,11.302-2.789c1.858-0.587,2.911-1.296,3.156-2.128c0.243-0.83-0.711-1.296-2.862-1.395
		c-2.839,0-6.385,0.051-10.642,0.146c-4.257,0.099-9.004,0.221-14.238,0.367c-5.236,0.146-10.839,0.294-16.807,0.44
		c-5.97,0.146-12.086,0.22-18.348,0.22l0.881-4.99c0.587-4.109,1.075-7.633,1.468-10.568c0.39-2.936,0.587-5.138,0.587-6.605
		c0-2.738-0.931-5.259-2.789-7.559c-1.86-2.299-3.915-3.913-6.165-4.844c-2.252-0.93-4.307-0.978-6.165-0.147
		c-1.86,0.833-2.789,3.01-2.789,6.532c0,1.665-0.392,4.55-1.174,8.66c-0.785,4.109-1.713,9.101-2.789,14.972l-0.88,4.403
		c-9.493-0.294-18.689-0.808-27.595-1.541c-8.903-0.734-17.027-1.835-24.366-3.303c-1.076-0.195-1.835,0.073-2.275,0.808
		c-0.44,0.733,0.124,1.64,1.688,2.715c1.86,1.273,3.89,2.619,6.092,4.037c2.202,1.419,4.649,2.789,7.339,4.109
		c2.692,1.321,5.603,2.495,8.733,3.523c3.133,1.027,6.509,1.738,10.128,2.128c2.546,0.294,5.307,0.514,8.293,0.66
		c2.984,0.147,6.188,0.173,9.614,0.074c-1.468,8.71-2.789,17.591-3.963,26.641c-1.174,9.052-1.761,17.346-1.761,24.88
		c0,8.024,0.734,15.095,2.202,21.21c1.468,6.116,3.303,11.254,5.504,15.412c2.202,4.157,4.573,7.288,7.119,9.394
		c2.543,2.104,4.94,3.156,7.192,3.156c1.468,0,2.396-0.147,2.789-0.44c0.39-0.294,0.44-0.906,0.147-1.835
		c-0.294-0.932-0.833-2.326-1.615-4.184c-0.784-1.859-1.566-4.355-2.349-7.485c-0.784-3.131-1.468-7.021-2.055-11.67
		c-0.587-4.646-0.881-10.201-0.881-16.659c0-3.619,0.243-7.779,0.734-12.477C104.708,116.285,105.32,111.32,106.054,106.084z"/>
	<path fill="#222222" d="M218.562,169.641c-0.785-1.519-1.615-3.573-2.496-6.165c-0.88-2.592-1.688-5.82-2.422-9.688
		c-0.734-3.864-1.248-8.488-1.541-13.871c-0.197-3.522-0.124-8.121,0.22-13.797c0.342-5.675,0.83-11.816,1.468-18.422
		c0.635-6.604,1.296-13.332,1.981-20.183c0.684-6.848,1.344-13.232,1.981-19.154c0.636-5.92,1.149-11.032,1.542-15.339
		c0.39-4.305,0.537-7.24,0.44-8.807c-0.099-2.25-1.151-4.306-3.156-6.165c-2.007-1.858-4.184-3.131-6.532-3.816
		c-2.348-0.684-4.454-0.61-6.312,0.22c-1.86,0.833-2.741,2.716-2.642,5.651c0.097,1.174-0.05,3.72-0.44,7.633
		c-0.392,3.915-0.906,8.637-1.541,14.164c-0.638,5.53-1.321,11.621-2.055,18.274c-0.734,6.656-1.395,13.31-1.982,19.963
		c-0.587,6.655-1.027,13.015-1.321,19.081c-0.293,6.068-0.344,11.353-0.147,15.853c0.016,0.365,0.043,0.72,0.063,1.08
		c-0.021,0.057-0.042,0.111-0.063,0.168c-1.566,4.16-3.06,7.977-4.477,11.449c-1.419,3.475-2.715,6.361-3.89,8.66
		c-1.174,2.3-2.007,3.449-2.495,3.449c-1.174,0-2.055-1.517-2.642-4.551c-0.587-3.031-1.005-6.628-1.248-10.788
		c-0.245-4.158-0.367-8.367-0.367-12.623c0-4.257-0.05-7.656-0.147-10.202v-2.348c0-1.564-0.979-3.156-2.936-4.771
		c-1.958-1.615-5.188-2.422-9.688-2.422c-2.252,0-3.963,0.293-5.138,0.88c-1.174,0.588-2.032,1.299-2.568,2.129
		c-0.539,0.832-0.858,1.738-0.954,2.716c-0.099,0.979-0.147,1.812-0.147,2.495c0,1.272-0.245,3.107-0.734,5.504
		c-0.491,2.399-1.101,5.016-1.834,7.853c-0.734,2.84-1.592,5.725-2.569,8.66c-0.979,2.937-1.981,5.629-3.009,8.073
		c-1.027,2.447-2.032,4.429-3.009,5.945c-0.979,1.518-1.812,2.274-2.495,2.274c-1.078,0-1.959-0.488-2.642-1.468
		c-0.686-0.977-1.2-2.177-1.542-3.596c-0.344-1.418-0.564-2.959-0.661-4.624c-0.099-1.663-0.146-3.179-0.146-4.55
		c0-6.752,0.734-13.307,2.202-19.669c1.468-6.36,3.449-12.036,5.945-17.027c2.495-4.99,5.38-8.977,8.66-11.962
		c3.277-2.984,6.727-4.478,10.348-4.478c1.369,0,2.47,0.638,3.302,1.908c0.831,1.273,1.491,2.767,1.982,4.478
		c0.488,1.713,0.807,3.4,0.954,5.063c0.146,1.665,0.22,2.936,0.22,3.816c0,0.784,0.269,1.298,0.808,1.541
		c0.537,0.246,1.149,0.294,1.834,0.147c0.684-0.147,1.296-0.44,1.835-0.881c0.537-0.44,0.807-0.904,0.807-1.395
		c0-5.381-0.637-9.516-1.908-12.403c-1.272-2.885-3.059-4.99-5.357-6.312c-2.3-1.321-5.016-2.104-8.146-2.349
		c-3.133-0.243-6.605-0.367-10.421-0.367c-5.481,0-10.227,1.739-14.238,5.211c-4.014,3.475-7.364,7.779-10.055,12.917
		c-2.692,5.138-4.697,10.642-6.018,16.513c-1.321,5.871-1.981,11.206-1.981,15.999c0,5.09,0.537,9.42,1.615,12.99
		c1.076,3.573,2.568,6.484,4.477,8.734c1.908,2.252,4.133,3.89,6.679,4.917c2.543,1.027,5.284,1.541,8.22,1.541
		c1.957,0,3.743-0.562,5.357-1.688c1.615-1.123,3.058-2.495,4.33-4.109c1.271-1.614,2.397-3.399,3.376-5.357
		c0.977-1.956,1.835-3.743,2.569-5.357c0.734-1.615,1.321-2.984,1.761-4.11c0.44-1.124,0.757-1.688,0.954-1.688
		c0.195,0,0.44,0.711,0.734,2.128c0.294,1.42,0.734,3.181,1.321,5.284c0.587,2.105,1.321,4.403,2.202,6.898
		c0.881,2.496,1.981,4.796,3.303,6.899c1.321,2.103,2.837,3.864,4.55,5.284c1.711,1.417,3.743,2.128,6.091,2.128
		c1.076,0,1.858-0.146,2.349-0.44c2.055-0.686,4.158-2.546,6.312-5.577c2.151-3.032,4.231-6.605,6.238-10.716
		c1.154-2.366,2.264-4.842,3.338-7.403c0.488,2.495,1.106,4.847,1.872,7.037c1.761,5.041,3.839,9.247,6.238,12.623
		c2.396,3.376,4.917,5.894,7.559,7.56c2.642,1.662,4.991,2.444,7.046,2.348c1.369,0,2.225-0.146,2.568-0.44
		c0.342-0.293,0.367-0.832,0.074-1.614C219.883,172.306,219.344,171.156,218.562,169.641z"/>
	<path fill="#222222" d="M314.631,149.385c-0.539-3.571-0.809-8-0.809-13.284c0-4.892,0.295-9.148,0.881-12.77
		c0.588-3.619,0.881-6.653,0.881-9.101c0-1.956-0.488-3.571-1.465-4.844c-0.978-1.271-2.221-2.275-3.734-3.009
		c-1.514-0.734-3.225-1.248-5.128-1.542c-1.906-0.293-3.787-0.44-5.64-0.44c-1.271,0-2.564,0.881-3.883,2.643
		s-2.638,3.963-3.956,6.605c-1.319,2.642-2.612,5.529-3.881,8.66c-1.271,3.133-2.392,6.018-3.369,8.66
		c-0.977,2.642-1.807,4.844-2.491,6.604c-0.683,1.762-1.172,2.643-1.463,2.643c-0.294,0-0.246-1.468,0.145-4.403
		c0.39-2.936,0.782-6.605,1.172-11.009c0.39-4.403,0.61-9.148,0.66-14.238c0.048-5.087-0.367-9.834-1.245-14.237
		c-0.881-4.403-2.442-8.073-4.688-11.009c-2.248-2.936-5.47-4.403-9.669-4.403c-2.149,0-4.177,1.174-6.08,3.522
		c-1.904,2.349-3.686,5.431-5.346,9.247s-3.197,8.124-4.614,12.917c-1.417,4.796-2.686,9.614-3.81,14.458
		c-1.124,4.844-2.099,9.468-2.929,13.871c-0.831,4.403-1.491,8.123-1.977,11.155c-0.099-0.782-0.147-1.663-0.147-2.642
		c0-0.978,0-2.005,0-3.083c0-5.284,0.269-10.371,0.808-15.266c0.537-4.892,0.807-9.49,0.807-13.797c0-2.151-1.078-3.913-3.229-5.284
		c-2.154-1.369-4.527-2.323-7.119-2.862c-2.594-0.537-4.968-0.684-7.119-0.44c-2.151,0.245-3.229,0.906-3.229,1.981
		c0,1.078,0.293,1.812,0.881,2.202c0.587,0.392,0.88,1.126,0.88,2.201c0,2.546-0.048,5.702-0.146,9.468
		c-0.096,3.768-0.048,7.706,0.146,11.815c0.195,4.11,0.562,8.245,1.101,12.403c0.537,4.16,1.442,7.878,2.715,11.155
		c1.271,3.28,3.009,5.945,5.211,8s4.965,3.082,8.293,3.082c1.858,0,2.862-0.392,3.009-1.174c0.146-0.782-0.025-2.151-0.514-4.11
		c0.782-2.837,1.614-6.58,2.495-11.229c0.881-4.646,1.81-9.589,2.789-14.825c0.977-5.233,2.004-10.518,3.082-15.853
		c1.076-5.332,2.202-10.15,3.376-14.458c1.174-4.305,2.397-7.802,3.67-10.494c1.271-2.69,2.642-4.037,4.11-4.037
		c0.782,0,1.271,1.101,1.468,3.303c0.195,2.202,0.169,5.064-0.073,8.587c-0.246,3.522-0.613,7.463-1.101,11.815
		c-0.491,4.355-0.954,8.638-1.395,12.844c-0.44,4.209-0.858,8.172-1.248,11.89c-0.392,3.72-0.587,6.655-0.587,8.807
		c0,3.229,0.66,5.849,1.981,7.853c1.321,2.007,2.885,3.573,4.697,4.697c1.81,1.126,3.67,1.86,5.578,2.202
		c1.908,0.344,3.45,0.514,4.624,0.514c0.587,0,1.271-0.537,2.055-1.615c0.782-1.075,1.638-2.47,2.569-4.183
		c0.929-1.711,1.857-3.692,2.789-5.945c0.929-2.25,1.835-4.55,2.716-6.898c2.055-5.381,4.206-11.596,6.458-18.642
		c0.096,7.438,0.83,14.092,2.202,19.963c0.587,2.546,1.344,4.99,2.275,7.339c0.929,2.349,2.055,4.477,3.376,6.385
		c1.321,1.908,2.885,3.427,4.697,4.551c1.81,1.123,3.938,1.688,6.385,1.688c1.564,0,2.445-0.466,2.643-1.395
		c0.194-0.929,0.121-2.47-0.221-4.623C315.607,155.82,315.167,152.958,314.631,149.385z"/>
	<path fill="#222222" d="M337.38,78.563c2.495,0.881,4.794,1.395,6.899,1.541c2.103,0.146,3.863-0.195,5.283-1.027
		c1.418-0.83,2.129-2.371,2.129-4.624c0-1.369-0.44-2.885-1.321-4.55c-0.881-1.663-2.032-3.229-3.449-4.697
		c-1.42-1.468-3.034-2.69-4.844-3.67c-1.812-0.977-3.597-1.468-5.358-1.468c-1.859,0-3.621,0.025-5.283,0.074
		c-1.666,0.05-3.107,0.293-4.33,0.733c-1.225,0.44-2.202,1.151-2.936,2.129c-0.734,0.979-1.102,2.398-1.102,4.256
		c0,1.273,0.711,2.619,2.129,4.037c1.417,1.419,3.179,2.766,5.283,4.036C332.584,76.606,334.885,77.682,337.38,78.563z"/>
	<path fill="#222222" d="M431.686,44.362c-1.371-1.175-2.961-2.202-4.771-3.083c-1.811-0.88-3.596-1.589-5.357-2.128
		c-1.76-0.537-2.984-0.808-3.668-0.808c-1.373,0-2.203,0.44-2.496,1.321s-0.439,1.614-0.439,2.202c0,0.197-0.221,1.665-0.662,4.403
		c-0.439,2.74-1.004,6.288-1.688,10.642c-0.686,4.355-1.445,9.247-2.275,14.678c-0.832,5.432-1.592,10.888-2.275,16.366
		c-1.467-1.662-3.475-2.642-6.018-2.936c-2.545-0.293-5.871-0.44-9.98-0.44c-3.621,0-6.924,0.808-9.908,2.422
		c-2.986,1.615-5.676,3.769-8.073,6.459c-2.399,2.692-4.502,5.798-6.312,9.32c-1.812,3.522-3.303,7.17-4.477,10.936
		c-1.174,3.768-2.055,7.511-2.643,11.229c-0.587,3.72-0.881,7.192-0.881,10.422c0,1.415,0.057,2.765,0.158,4.062
		c-0.722,1.384-1.455,2.732-2.211,4.012c-1.272,2.153-2.521,4.062-3.742,5.724c-1.225,1.665-2.326,2.741-3.303,3.229
		c-1.273-2.837-2.521-6.752-3.743-11.742c-1.226-4.991-1.835-11.449-1.835-19.375c0-1.564,0.049-3.253,0.146-5.064
		c0.097-1.81,0.195-3.645,0.294-5.504c0.097-1.858,0.194-3.619,0.294-5.284c0.096-1.663,0.146-3.179,0.146-4.551
		c0-1.857-0.954-3.546-2.862-5.063c-1.908-1.517-4.036-2.665-6.386-3.45c-2.348-0.781-4.477-1.05-6.385-0.807
		c-1.908,0.245-2.861,1.151-2.861,2.715c0,0.881-0.074,1.982-0.221,3.303c-0.146,1.321-0.344,3.01-0.587,5.064
		c-0.245,2.055-0.44,4.601-0.587,7.633c-0.146,3.034-0.221,6.655-0.221,10.861c0,3.427,0.221,7.463,0.66,12.109
		c0.441,4.649,1.395,9.126,2.863,13.431c1.467,4.308,3.619,7.952,6.458,10.936c2.837,2.986,6.653,4.477,11.448,4.477h0.294
		c1.663,0,3.376-0.855,5.138-2.568c1.762-1.711,3.473-3.913,5.137-6.605c1.163-1.882,2.287-3.915,3.38-6.084
		c0.158,0.524,0.325,1.038,0.509,1.534c1.32,3.573,3.082,6.483,5.283,8.733c2.202,2.252,4.721,3.89,7.561,4.917
		c2.836,1.027,5.724,1.541,8.66,1.541c2.936,0,5.576-0.903,7.926-2.715c2.348-1.81,4.379-3.816,6.092-6.019
		c1.711-2.201,3.105-4.206,4.184-6.018c1.074-1.81,1.76-2.716,2.055-2.716c0.193,0,0.439,0.784,0.732,2.349
		c0.295,1.566,0.758,3.5,1.395,5.798c0.637,2.301,1.492,4.796,2.57,7.485c1.074,2.69,2.443,5.186,4.109,7.486
		c1.662,2.298,3.645,4.231,5.943,5.798c2.299,1.564,5.014,2.349,8.146,2.349c1.076,0,1.762-0.124,2.057-0.367
		c0.293-0.245,0.293-0.954,0-2.128c-0.295-1.175-0.734-2.961-1.322-5.357c-0.586-2.399-1.174-5.75-1.762-10.055
		c-0.586-4.305-1.125-9.711-1.613-16.22c-0.492-6.507-0.734-14.458-0.734-23.852c0-8.122,0.563-16.169,1.688-24.146
		c1.125-7.974,2.35-15.239,3.67-21.797c1.32-6.555,2.543-12.084,3.67-16.586c1.123-4.5,1.688-7.436,1.688-8.808
		C433.74,46.761,433.055,45.536,431.686,44.362z M405.045,115.038c-0.146,2.007-0.221,3.793-0.221,5.357
		c0,1.272-0.344,3.107-1.027,5.504c-0.686,2.399-1.592,5.016-2.715,7.853c-1.127,2.84-2.375,5.725-3.744,8.66
		c-1.371,2.937-2.74,5.629-4.109,8.073c-1.371,2.447-2.668,4.429-3.891,5.945c-1.225,1.518-2.178,2.274-2.861,2.274
		c-1.078,0-2.08-0.488-3.01-1.468c-0.931-0.977-1.738-2.177-2.422-3.596c-0.686-1.418-1.199-2.959-1.541-4.624
		c-0.344-1.663-0.514-3.179-0.514-4.55c0-6.752,0.514-13.307,1.541-19.669c1.028-6.36,2.445-12.011,4.258-16.953
		c1.809-4.94,3.912-8.903,6.311-11.89c2.396-2.983,4.967-4.477,7.707-4.477c1.369,0,2.25,0.638,2.643,1.908
		c0.389,1.272,0.535,2.766,0.439,4.477c-0.1,1.713-0.293,3.401-0.588,5.063c-0.293,1.665-0.439,2.888-0.439,3.67
		c0,0.784,0.488,1.298,1.467,1.541c0.979,0.246,2.057,0.319,3.23,0.221C405.361,110.807,405.191,113.033,405.045,115.038z"/>
	<path fill="#222222" d="M449.519,78.563c2.495,0.881,4.793,1.395,6.898,1.541c2.103,0.146,3.864-0.195,5.284-1.027
		c1.417-0.83,2.128-2.371,2.128-4.624c0-1.369-0.44-2.885-1.32-4.55c-0.881-1.663-2.032-3.229-3.45-4.697
		c-1.419-1.468-3.034-2.69-4.844-3.67c-1.812-0.977-3.596-1.468-5.357-1.468c-1.859,0-3.621,0.025-5.284,0.074
		c-1.665,0.05-3.107,0.293-4.33,0.733c-1.225,0.44-2.201,1.151-2.936,2.129c-0.733,0.979-1.101,2.398-1.101,4.256
		c0,1.273,0.711,2.619,2.128,4.037c1.418,1.419,3.179,2.766,5.284,4.036C444.723,76.606,447.022,77.682,449.519,78.563z"/>
	<path fill="#222222" d="M565.18,157.972c-0.344-2.151-0.784-5.014-1.321-8.587c-0.539-3.571-0.807-8-0.807-13.284
		c0-4.892,0.293-9.148,0.881-12.77c0.587-3.619,0.88-6.653,0.88-9.101c0-1.956-0.488-3.571-1.465-4.844
		c-0.978-1.271-2.221-2.275-3.734-3.009c-1.514-0.734-3.225-1.248-5.128-1.542c-1.906-0.293-3.786-0.44-5.64-0.44
		c-1.271,0-2.564,0.881-3.883,2.643s-2.638,3.963-3.956,6.605c-1.319,2.642-2.612,5.529-3.881,8.66
		c-1.271,3.133-2.392,6.018-3.369,8.66c-0.977,2.642-1.807,4.844-2.49,6.604c-0.684,1.762-1.172,2.643-1.464,2.643
		c-0.293,0-0.245-1.468,0.145-4.403c0.391-2.936,0.782-6.605,1.172-11.009c0.391-4.403,0.61-9.148,0.661-14.238
		c0.048-5.087-0.367-9.834-1.246-14.237c-0.88-4.403-2.442-8.073-4.688-11.009c-2.247-2.936-5.47-4.403-9.669-4.403
		c-2.149,0-4.177,1.174-6.08,3.522s-3.686,5.431-5.346,9.247c-1.661,3.816-3.197,8.124-4.615,12.917
		c-1.417,4.796-2.686,9.614-3.81,14.458c-1.123,4.844-2.098,9.468-2.929,13.871c-0.83,4.403-1.49,8.123-1.977,11.155
		c-0.099-0.782-0.146-1.663-0.146-2.642c0-0.978,0-2.005,0-3.083c0-5.284,0.268-10.371,0.807-15.266
		c0.537-4.892,0.808-9.49,0.808-13.797c0-2.151-1.078-3.913-3.229-5.284c-2.153-1.369-4.527-2.323-7.118-2.862
		c-2.595-0.537-4.968-0.684-7.119-0.44c-2.151,0.245-3.229,0.906-3.229,1.981c0,1.078,0.294,1.812,0.881,2.202
		c0.587,0.392,0.881,1.126,0.881,2.201c0,2.546-0.049,5.702-0.147,9.468c-0.096,3.768-0.048,7.706,0.147,11.815
		c0.072,1.531,0.177,3.067,0.297,4.605c-0.246,0.521-0.479,1.026-0.735,1.56c-1.174,2.447-2.398,4.748-3.669,6.899
		c-1.273,2.153-2.521,4.062-3.743,5.724c-1.225,1.665-2.325,2.741-3.303,3.229c-1.272-2.837-2.521-6.752-3.743-11.742
		c-1.225-4.991-1.834-11.449-1.834-19.375c0-1.564,0.048-3.253,0.146-5.064c0.096-1.81,0.194-3.645,0.293-5.504
		c0.097-1.858,0.195-3.619,0.294-5.284c0.097-1.663,0.146-3.179,0.146-4.551c0-1.857-0.954-3.546-2.862-5.063
		c-1.908-1.517-4.036-2.665-6.385-3.45c-2.349-0.781-4.477-1.05-6.385-0.807c-1.908,0.245-2.862,1.151-2.862,2.715
		c0,0.881-0.073,1.982-0.22,3.303c-0.147,1.321-0.345,3.01-0.588,5.064c-0.245,2.055-0.44,4.601-0.587,7.633
		c-0.146,3.034-0.22,6.655-0.22,10.861c0,3.427,0.22,7.463,0.66,12.109c0.44,4.649,1.395,9.126,2.862,13.431
		c1.468,4.308,3.619,7.952,6.458,10.936c2.837,2.986,6.653,4.477,11.449,4.477h0.294c1.662,0,3.376-0.855,5.137-2.568
		c1.762-1.711,3.473-3.913,5.138-6.605c1.663-2.69,3.252-5.674,4.771-8.953c0.123-0.266,0.23-0.521,0.352-0.786
		c0.542,3.999,1.423,7.594,2.655,10.767c1.271,3.28,3.009,5.945,5.21,8c2.202,2.055,4.966,3.082,8.294,3.082
		c1.857,0,2.862-0.392,3.009-1.174s-0.025-2.151-0.514-4.11c0.782-2.837,1.614-6.58,2.495-11.229
		c0.881-4.646,1.81-9.589,2.789-14.825c0.977-5.233,2.004-10.518,3.082-15.853c1.076-5.332,2.202-10.15,3.376-14.458
		c1.175-4.305,2.396-7.802,3.67-10.494c1.271-2.69,2.642-4.037,4.109-4.037c0.782,0,1.271,1.101,1.468,3.303
		c0.195,2.202,0.17,5.064-0.073,8.587c-0.245,3.522-0.612,7.463-1.101,11.815c-0.491,4.355-0.954,8.638-1.395,12.844
		c-0.44,4.209-0.857,8.172-1.248,11.89c-0.392,3.72-0.587,6.655-0.587,8.807c0,3.229,0.661,5.849,1.981,7.853
		c1.321,2.007,2.886,3.573,4.697,4.697c1.81,1.126,3.67,1.86,5.578,2.202c1.908,0.344,3.449,0.514,4.623,0.514
		c0.588,0,1.271-0.537,2.056-1.615c0.781-1.075,1.637-2.47,2.568-4.183c0.929-1.711,1.857-3.692,2.789-5.945
		c0.929-2.25,1.835-4.55,2.715-6.898c2.056-5.381,4.207-11.596,6.459-18.642c0.096,7.438,0.83,14.092,2.201,19.963
		c0.588,2.546,1.345,4.99,2.275,7.339c0.929,2.349,2.055,4.477,3.376,6.385s2.885,3.427,4.697,4.551
		c1.81,1.123,3.938,1.688,6.385,1.688c1.564,0,2.445-0.466,2.643-1.395C565.595,161.666,565.521,160.125,565.18,157.972z"/>
</g>
</svg>
