<?xml version="1.0" encoding="utf-8"?>
<!-- Generator: Adobe Illustrator 16.0.0, SVG Export Plug-In . SVG Version: 6.00 Build 0)  -->
<!DOCTYPE svg PUBLIC "-//W3C//DTD SVG 1.1//EN" "http://www.w3.org/Graphics/SVG/1.1/DTD/svg11.dtd">
<svg version="1.1" id="Camada_1" xmlns="http://www.w3.org/2000/svg" xmlns:xlink="http://www.w3.org/1999/xlink" x="0px" y="0px"
	 width="612px" height="264.026px" viewBox="0 0 612 264.026" enable-background="new 0 0 612 264.026" xml:space="preserve">
<g>
	<g>
		<path fill="#010002" d="M115.241,145.271c-1.436,8.424-2.478,15.88-3.129,22.363c-0.654,6.487-0.978,11.533-0.978,15.144
			c0,1.473,0,2.708,0,3.71c0,1.003,0.064,2.106,0.195,3.31c-4.302,0.803-8.54,1.204-12.711,1.204c-3.651,0-7.694-0.401-12.125-1.204
			c-0.263-1.068-0.522-2.338-0.782-3.811c-0.263-1.47-0.391-3.676-0.391-6.619c0-1.203,0.031-2.607,0.098-4.212
			c0.064-1.604,0.227-3.274,0.489-5.014c-1.827,3.077-4.009,5.985-6.551,8.725c-2.542,2.742-5.347,5.114-8.409,7.12
			c-3.065,2.006-6.355,3.61-9.875,4.813s-7.236,1.806-11.147,1.806c-8.604,0-15.058-2.809-19.36-8.424
			c-4.302-5.616-6.453-13.037-6.453-22.264c0-10.028,1.466-19.722,4.4-29.082c2.933-9.358,7.3-17.65,13.102-24.871
			c5.799-7.221,13.004-13.002,21.609-17.349c8.604-4.344,18.642-6.519,30.116-6.519c0.91,0,1.791,0.034,2.64,0.1
			c0.847,0.069,1.595,0.101,2.249,0.101c1.433-7.888,2.444-14.573,3.031-20.057c0.586-5.481,0.88-10.028,0.88-13.639
			c0-1.47-0.034-2.708-0.098-3.71c-0.067-1.003-0.165-2.106-0.293-3.31c2.215-0.401,4.757-0.702,7.626-0.902
			c2.866-0.201,5.344-0.301,7.431-0.301c3.78,0,7.951,0.401,12.516,1.203c0.651,2.006,0.978,4.547,0.978,7.622
			c0,5.886-0.782,13.037-2.346,21.461L115.241,145.271z M94.316,107.965c-1.173-0.267-2.316-0.433-3.422-0.501
			c-1.109-0.066-2.185-0.1-3.227-0.1c-6.258,0-11.571,1.604-15.938,4.813c-4.37,3.209-7.987,7.221-10.854,12.034
			c-2.869,4.813-4.956,9.997-6.258,15.544c-1.305,5.551-1.956,10.599-1.956,15.144c0,9.896,3.193,14.842,9.583,14.842
			c6.258,0,12.057-3.911,17.404-11.733c5.344-7.822,9.255-18.819,11.733-32.994L94.316,107.965z"/>
		<path fill="#010002" d="M159.436,150.887c0.782,6.418,2.866,11.2,6.258,14.341c3.389,3.144,8.342,4.713,14.862,4.713
			c5.213,0,9.808-0.567,13.787-1.704c3.975-1.135,8.18-2.64,12.613-4.514c2.084,2.677,3.486,5.917,4.205,9.729
			c0.715,3.811,1.075,7.856,1.075,12.134c-2.218,1.072-4.791,2.04-7.724,2.908c-2.934,0.871-5.964,1.604-9.093,2.206
			c-3.129,0.603-6.258,1.069-9.387,1.404c-3.129,0.332-5.934,0.502-8.409,0.502c-7.953,0-14.764-1.003-20.435-3.009
			c-5.671-2.006-10.365-4.845-14.08-8.524c-3.716-3.676-6.454-8.154-8.213-13.438c-1.76-5.28-2.64-11.131-2.64-17.55
			c0-8.154,1.369-16.177,4.107-24.068c2.738-7.888,6.615-14.942,11.635-21.16c5.017-6.218,11.147-11.232,18.382-15.042
			c7.235-3.811,15.351-5.716,24.347-5.716c4.302,0,8.311,0.536,12.026,1.604c3.716,1.072,6.942,2.708,9.68,4.914
			c2.738,2.206,4.889,4.914,6.453,8.123s2.347,6.954,2.347,11.232c0,6.017-1.369,11.232-4.106,15.644
			c-2.738,4.413-6.389,8.158-10.951,11.232c-4.565,3.077-9.747,5.585-15.546,7.521c-5.803,1.939-11.832,3.378-18.089,4.313
			L159.436,150.887z M170.583,130.429c4.953-0.802,8.995-1.837,12.124-3.108c3.129-1.27,5.604-2.674,7.431-4.212
			c1.824-1.536,3.062-3.109,3.716-4.713c0.651-1.604,0.978-3.209,0.978-4.814c0-2.538-0.816-4.613-2.444-6.217
			c-1.632-1.604-3.813-2.407-6.551-2.407c-3.392,0-6.487,0.771-9.289,2.307c-2.805,1.539-5.25,3.579-7.333,6.118
			c-2.087,2.542-3.88,5.45-5.378,8.725c-1.5,3.278-2.64,6.587-3.422,9.928L170.583,130.429z"/>
		<path fill="#010002" d="M254.082,150.887c0.782,6.418,2.866,11.2,6.258,14.341c3.389,3.144,8.342,4.713,14.862,4.713
			c5.213,0,9.808-0.567,13.787-1.704c3.975-1.135,8.18-2.64,12.613-4.514c2.084,2.677,3.486,5.917,4.205,9.729
			c0.715,3.811,1.075,7.856,1.075,12.134c-2.218,1.072-4.791,2.04-7.724,2.908c-2.934,0.871-5.964,1.604-9.093,2.206
			c-3.129,0.603-6.258,1.069-9.387,1.404c-3.129,0.332-5.934,0.502-8.409,0.502c-7.953,0-14.764-1.003-20.435-3.009
			c-5.671-2.006-10.365-4.845-14.08-8.524c-3.716-3.676-6.454-8.154-8.213-13.438c-1.76-5.28-2.64-11.131-2.64-17.55
			c0-8.154,1.369-16.177,4.107-24.068c2.738-7.888,6.615-14.942,11.635-21.16c5.017-6.218,11.147-11.232,18.382-15.042
			c7.235-3.811,15.351-5.716,24.347-5.716c4.302,0,8.311,0.536,12.026,1.604c3.716,1.072,6.942,2.708,9.681,4.914
			c2.737,2.206,4.889,4.914,6.453,8.123s2.346,6.954,2.346,11.232c0,6.017-1.368,11.232-4.105,15.644
			c-2.738,4.413-6.39,8.158-10.952,11.232c-4.565,3.077-9.747,5.585-15.546,7.521c-5.803,1.939-11.832,3.378-18.089,4.313
			L254.082,150.887z M265.229,130.429c4.953-0.802,8.995-1.837,12.124-3.108c3.129-1.27,5.604-2.674,7.431-4.212
			c1.824-1.536,3.062-3.109,3.716-4.713c0.651-1.604,0.978-3.209,0.978-4.814c0-2.538-0.816-4.613-2.444-6.217
			c-1.632-1.604-3.813-2.407-6.551-2.407c-3.392,0-6.487,0.771-9.289,2.307c-2.805,1.539-5.25,3.579-7.333,6.118
			c-2.087,2.542-3.88,5.45-5.378,8.725c-1.5,3.278-2.64,6.587-3.422,9.928L265.229,130.429z"/>
		<path fill="#010002" d="M331.128,131.03c1.434-8.424,2.509-15.876,3.227-22.363c0.716-6.484,1.076-11.533,1.076-15.143
			c0-1.47,0-2.708,0-3.71s-0.067-2.106-0.195-3.31c4.302-0.802,8.604-1.204,12.906-1.204c3.648,0,7.755,0.401,12.32,1.204
			c0.259,1.072,0.519,2.341,0.782,3.811c0.259,1.473,0.391,3.679,0.391,6.619c0,1.203-0.033,2.341-0.098,3.41
			c-0.067,1.072-0.229,2.407-0.489,4.011c2.998-5.748,7.56-10.561,13.689-14.441c6.126-3.876,13.102-5.816,20.924-5.816
			c9.124,0,16.134,3.209,21.022,9.627c4.889,6.418,7.333,15.713,7.333,27.879c0,8.293-1.24,16.647-3.715,25.071
			c-2.479,8.424-6.423,16.046-11.831,22.865c-5.412,6.819-12.418,12.369-21.022,16.646c-8.604,4.278-19.101,6.419-31.484,6.419
			c-2.219,0-3.881-0.069-4.987-0.201c-1.108-0.135-1.988-0.27-2.64-0.401l-7.822,45.529c-2.609,0.533-5.084,0.868-7.431,1.003
			c-2.347,0.132-4.565,0.201-6.649,0.201c-2.218,0-4.434-0.069-6.648-0.201c-2.218-0.135-4.565-0.47-7.04-1.003L331.128,131.03z
			 M352.443,167.935c1.042,0.401,2.378,0.671,4.009,0.803c1.629,0.135,3.291,0.2,4.987,0.2c5.735,0,10.657-1.369,14.765-4.111
			c4.106-2.739,7.495-6.218,10.168-10.43c2.671-4.212,4.627-8.856,5.867-13.939c1.237-5.08,1.857-10.028,1.857-14.842
			c0-4.679-0.947-8.725-2.835-12.134c-1.892-3.41-5.118-5.114-9.681-5.114c-5.998,0-11.146,2.607-15.448,7.822
			c-4.303,5.215-7.432,13.839-9.387,25.874L352.443,167.935z"/>
		<path fill="#010002" d="M458.825,150.887c0.782,6.418,2.866,11.2,6.258,14.341c3.389,3.144,8.341,4.713,14.861,4.713
			c5.213,0,9.809-0.567,13.787-1.704c3.976-1.135,8.18-2.64,12.613-4.514c2.084,2.677,3.486,5.917,4.204,9.729
			c0.715,3.811,1.076,7.856,1.076,12.134c-2.219,1.072-4.791,2.04-7.725,2.908c-2.934,0.871-5.965,1.604-9.094,2.206
			c-3.129,0.603-6.258,1.069-9.387,1.404c-3.129,0.332-5.934,0.502-8.408,0.502c-7.954,0-14.765-1.003-20.436-3.009
			s-10.364-4.845-14.08-8.524c-3.716-3.676-6.453-8.154-8.214-13.438c-1.76-5.28-2.64-11.131-2.64-17.55
			c0-8.154,1.369-16.177,4.106-24.068c2.738-7.888,6.615-14.942,11.636-21.16c5.018-6.218,11.146-11.232,18.382-15.042
			c7.236-3.811,15.352-5.716,24.347-5.716c4.303,0,8.312,0.536,12.027,1.604c3.715,1.072,6.941,2.708,9.68,4.914
			c2.737,2.206,4.889,4.914,6.453,8.123s2.347,6.954,2.347,11.232c0,6.017-1.369,11.232-4.106,15.644
			c-2.738,4.413-6.39,8.158-10.951,11.232c-4.565,3.077-9.747,5.585-15.547,7.521c-5.802,1.939-11.831,3.378-18.089,4.313
			L458.825,150.887z M469.972,130.429c4.953-0.802,8.995-1.837,12.124-3.108c3.129-1.27,5.604-2.674,7.432-4.212
			c1.824-1.536,3.062-3.109,3.715-4.713c0.651-1.604,0.979-3.209,0.979-4.814c0-2.538-0.816-4.613-2.445-6.217
			c-1.631-1.604-3.813-2.407-6.551-2.407c-3.392,0-6.486,0.771-9.289,2.307c-2.805,1.539-5.249,3.579-7.333,6.118
			c-2.087,2.542-3.881,5.45-5.378,8.725c-1.5,3.278-2.64,6.587-3.422,9.928L469.972,130.429z"/>
		<path fill="#010002" d="M536.067,131.03c1.433-8.424,2.508-15.876,3.227-22.363c0.715-6.484,1.075-11.533,1.075-15.143
			c0-1.47,0-2.708,0-3.71s-0.067-2.106-0.195-3.31c4.302-0.802,8.604-1.204,12.906-1.204c1.956,0,3.911,0.101,5.867,0.301
			c1.955,0.2,4.039,0.501,6.258,0.902c0.259,1.072,0.519,2.341,0.782,3.811c0.259,1.473,0.391,3.679,0.391,6.619
			c0,1.203-0.033,2.407-0.098,3.61c-0.067,1.203-0.229,2.676-0.489,4.412c1.302-2.407,2.934-4.779,4.89-7.12
			c1.955-2.338,4.137-4.444,6.551-6.318c2.411-1.871,5.084-3.375,8.018-4.513c2.934-1.134,6.16-1.705,9.68-1.705
			c2.738,0,5.085,0.335,7.04,1.003c0.129,0.536,0.195,1.072,0.195,1.604c0,0.536,0,1.138,0,1.805c0,3.745-0.458,7.622-1.368,11.633
			c-0.914,4.011-2.151,7.355-3.716,10.028c-0.782-0.132-1.632-0.267-2.542-0.401c-0.914-0.131-2.087-0.2-3.521-0.2
			c-5.347,0-9.747,0.937-13.199,2.808c-3.456,1.875-6.292,4.513-8.507,7.923c-2.219,3.41-3.979,7.521-5.28,12.334
			c-1.305,4.814-2.478,10.164-3.52,16.046l-7.236,40.314c-5.084,0.803-9.845,1.203-14.275,1.203c-4.564,0-9.063-0.4-13.493-1.203
			L536.067,131.03z"/>
	</g>
</g>
</svg>
