<?xml version="1.0" encoding="utf-8"?>
<!-- Generator: Adobe Illustrator 16.0.0, SVG Export Plug-In . SVG Version: 6.00 Build 0)  -->
<!DOCTYPE svg PUBLIC "-//W3C//DTD SVG 1.1//EN" "http://www.w3.org/Graphics/SVG/1.1/DTD/svg11.dtd">
<svg version="1.1" id="Camada_1" xmlns="http://www.w3.org/2000/svg" xmlns:xlink="http://www.w3.org/1999/xlink" x="0px" y="0px"
	 width="612px" height="320.456px" viewBox="0 0 612 320.456" enable-background="new 0 0 612 320.456" xml:space="preserve">
<g>
	<g>
		<path fill="#C75A81" d="M267.086,260.498c0,9.988-3.818,18.773-11.446,26.355c-7.633,7.577-16.504,11.369-26.619,11.369
			c-15.618,0-28.482-2.415-38.597-7.235c-6.035-2.932-14.998-9.302-26.884-19.12c-5.325-4.481-12.157-11.283-20.497-20.412
			c-8.876-9.649-15.705-16.626-20.497-20.929c-4.791-4.994-12.511-12.229-23.158-21.704c-3.373,3.274-10.648,9.56-21.828,18.862
			c-15.085,12.745-26.531,19.119-34.337,19.119c-7.279,0-13.002-2.454-17.169-7.363c-4.172-4.909-6.255-11.24-6.255-18.991
			c0-10.336,4.879-18.862,14.64-25.58c9.225-6.37,20.051-9.56,32.474-9.56c12.599,0,23.778,3.532,33.54,10.594
			c7.096-7.404,13.309-14.813,18.632-22.221c12.419-17.054,24.756-35.225,37-54.519c-10.826,3.101-20.23,4.651-28.215,4.651
			c-12.603,0-24.136-2.669-34.604-8.01c-11.891-5.854-18.633-13.605-20.23-23.254c-0.357-2.584,0.708-3.875,3.194-3.875
			c1.951,0,3.103,0.949,3.461,2.842c2.483,13.952,18.72,20.929,48.711,20.929c10.822,0,22.891-2.326,36.201-6.977
			c7.453-11.538,13.13-20.928,17.036-28.164c6.563-12.229,15.348-23.424,26.353-33.589c13.13-12.229,25.196-18.345,36.2-18.345
			c11.18,0,16.77,4.74,16.77,14.211c0,6.548-2.753,13.177-8.252,19.895c-1.955,2.415-6.921,7.234-14.906,14.47
			c-18.101,16.536-40.905,30.146-68.41,40.824c-11.359,18.26-25.911,39.621-43.654,64.078c-6.036,8.441-12.336,15.936-18.899,22.479
			c4.792,5.342,11.887,13.008,21.295,22.996c8.519,9.472,22.093,23.166,40.727,41.083c9.936,8.095,17.476,13.177,22.625,15.244
			c7.628,3.1,18.899,4.65,33.805,4.65c8.693,0,16.504-1.982,23.425-5.942c7.627-4.481,11.445-10.336,11.445-17.57
			c0-5.167-2.396-7.751-7.187-7.751c-8.876,0-13.842,3.443-14.907,10.335c-0.178,1.203-0.532,2.798-1.064,4.78
			c-0.532,1.978-1.688,2.713-3.46,2.195c-1.955-0.689-2.753-2.154-2.396-4.393l0.532-3.874c1.951-13.784,9.05-20.671,21.295-20.671
			c4.08,0,7.453,2.022,10.115,6.072C265.755,252.528,267.086,256.533,267.086,260.498z M92.469,203.707
			c-8.518-5.2-18.101-7.804-28.748-7.804c-24.49,0-36.734,8.15-36.734,24.449c0,10.056,5.677,15.083,17.036,15.083
			c6.742,0,16.238-4.769,28.482-14.304C77.829,216.973,84.484,211.163,92.469,203.707z M250.583,43.974
			c0-4.651-3.107-6.977-9.316-6.977c-9.762,0-19.964,5.083-30.612,15.245c-8.518,8.268-15.704,17.917-21.561,28.938
			c-2.487,4.308-6.214,10.767-11.18,19.378c22.712-9.128,40.992-19.722,54.833-31.781c3.901-3.443,7.895-6.887,11.979-10.335
			C248.628,54.14,250.583,49.315,250.583,43.974z"/>
		<path fill="#C75A81" d="M233.812,206.754c-12.955,11.543-22.538,19.209-28.748,22.996c-7.279,4.478-13.933,6.544-19.964,6.201
			c-6.212-0.347-10.826-1.769-13.842-4.263c-3.019-2.496-4.524-5.898-4.524-10.207c0-6.887,3.016-14.296,9.051-22.221
			c3.369-4.82,8.958-12.313,16.769-22.479c1.771-2.411,5.232-6.719,10.381-12.92c1.064-1.203,3.103-3.185,6.123-5.942
			c2.483-2.411,4.791-1.635,6.92,2.326c0.354,1.033-0.445,2.757-2.396,5.167c-0.711,1.033-2.129,2.842-4.259,5.426
			c-14.73,17.054-24.933,31.353-30.611,42.892c-0.711,1.207-1.064,2.673-1.064,4.393c0,6.549,3.547,9.818,10.646,9.818
			c5.145,0,9.404-0.945,12.778-2.843c11.533-6.37,21.56-13.089,30.079-20.153c0.707-0.517,1.505-0.517,2.396,0
			C234.61,205.462,234.699,206.069,233.812,206.754z M265.488,109.345c-14.02,11.542-30.257,22.996-48.712,34.365
			c-1.597,1.034-2.661,0.948-3.194-0.258c-0.711-1.203-0.357-2.41,1.065-3.618c8.872-8.785,22.625-22.132,41.259-40.049
			c0.707-0.517,1.597-0.775,2.662-0.775c1.95,0,3.813,0.82,5.589,2.455c1.772,1.639,2.662,3.404,2.662,5.297
			C266.819,107.794,266.374,108.658,265.488,109.345z"/>
		<path fill="#C75A81" d="M331.767,205.462c-12.069,10.683-22.006,18.434-29.812,23.255c-13.489,8.438-25.466,12.401-35.936,11.885
			c-6.034-0.347-10.207-1.465-12.51-3.358c-3.552-2.932-4.704-7.061-3.46-12.402c2.304-9.987,11.354-22.221,27.15-36.69
			c-2.486-7.061-3.193-13.436-2.129-19.12c-6.92,6.375-19.257,17.828-37,34.364c-1.244,1.208-2.129,0.949-2.662-0.774
			c0-0.687,0.175-1.462,0.532-2.325c2.129-1.895,11.088-10.505,26.885-25.839c5.324-5.337,11.533-11.368,18.633-18.086
			c3.368-3.787,6.297-4.304,8.784-1.55c1.951,2.241,1.153,5.342-2.396,9.303c-1.954,2.24-2.927,4.738-2.927,7.492
			c0,1.897,0.62,4.779,1.863,8.655c1.239,3.876,1.863,6.848,1.863,8.914c0,3.102-0.799,5.083-2.395,5.943
			c-5.323,2.931-10.56,7.711-15.705,14.34c-5.15,6.634-8.077,12.015-8.785,16.149c-0.71,3.791,1.419,5.684,6.39,5.684
			c10.822,0,20.762-2.495,29.812-7.492c13.663-7.578,24.043-14.296,31.143-20.154c0.708-0.517,1.506-0.517,2.396,0
			C332.565,204.17,332.652,204.776,331.767,205.462z"/>
		<path fill="#C75A81" d="M390.061,206.754c-12.955,11.543-22.538,19.209-28.748,22.996c-7.278,4.478-13.933,6.544-19.964,6.201
			c-6.213-0.347-10.826-1.769-13.842-4.263c-3.02-2.496-4.524-5.898-4.524-10.207c0-6.887,3.015-14.296,9.051-22.221
			c3.368-4.82,8.958-12.313,16.769-22.479c1.771-2.411,5.232-6.719,10.382-12.92c1.064-1.203,3.103-3.185,6.122-5.942
			c2.483-2.411,4.79-1.635,6.921,2.326c0.354,1.033-0.445,2.757-2.396,5.167c-0.711,1.033-2.129,2.842-4.259,5.426
			c-14.73,17.054-24.934,31.353-30.61,42.892c-0.712,1.207-1.065,2.673-1.065,4.393c0,6.549,3.548,9.818,10.647,9.818
			c5.145,0,9.404-0.945,12.777-2.843c11.532-6.37,21.561-13.089,30.078-20.153c0.708-0.517,1.506-0.517,2.396,0
			C390.859,205.462,390.946,206.069,390.061,206.754z M395.384,130.015c0,2.067-0.71,4.999-2.129,8.785
			c-2.662,3.274-5.236,4.651-7.72,4.134c-4.259-0.86-5.855-3.271-4.79-7.235c0-0.169,1.771-2.583,5.323-7.234l2.927-2.842
			c0.886-0.86,1.773-1.461,2.662-1.809c0.354-0.687,0.933-0.687,1.731,0C394.187,124.504,394.852,126.572,395.384,130.015z"/>
		<path fill="#C75A81" d="M500.26,200.037c-0.531,0.864-0.798,1.292-0.798,1.292s-1.065,0.863-3.194,2.584
			c-8.696,5.857-16.329,9.133-22.893,9.818c-5.856,0.517-9.05,0.775-9.582,0.775c-2.487-0.344-4.084-0.687-4.791-1.034
			c-18.634,16.884-36.913,25.321-54.834,25.321c-5.324,0-10.382-1.033-15.173-3.101c-3.194-1.381-5.237-4.219-6.123-8.526
			c-0.89-3.96-0.711-7.751,0.533-11.368c3.727-11.022,12.864-22.222,27.417-33.59c10.822-8.611,23.066-14.639,36.733-18.086
			c2.836-1.894,6.121-2.843,9.849-2.843c10.114,0,16.504,3.876,19.165,11.627c0.532,1.724,0.799,4.393,0.799,8.01
			c0,7.582-4.259,16.625-12.776,27.13c3.194,0.348,5.856,0.433,7.985,0.258c6.031-0.517,13.131-3.443,21.295-8.784l3.992-2.066
			c1.239-0.688,2.038-0.602,2.396,0.258C500.793,198.401,500.793,199.177,500.26,200.037z M450.75,209.597
			c-9.408-4.305-14.108-12.314-14.108-24.029c0-4.135,1.152-8.438,3.461-12.92c-7.985,3.101-15.531,7.234-22.626,12.402
			c-7.1,5.168-13.222,11.025-18.366,17.57c-3.195,4.134-5.324,9.132-6.39,14.985c-0.357,2.241,0.309,4.481,1.997,6.719
			c1.685,2.24,4.126,3.532,7.32,3.875c2.13,0.174,4.259,0.259,6.388,0.259c8.16,0,16.146-2.067,23.957-6.201
			C435.578,220.538,441.699,216.315,450.75,209.597z M470.979,180.658c0-2.584-0.798-4.994-2.396-7.234
			c-2.84-3.961-6.567-5.942-11.18-5.942c-8.343,0-12.511,5.942-12.511,17.828c0,9.476,3.813,16.02,11.446,19.637
			C466.097,194.093,470.979,186,470.979,180.658z"/>
		<path fill="#C75A81" d="M592.354,204.17c-3.727,3.791-7.545,7.582-11.446,11.369c-7.633,7.065-13.934,11.543-18.899,13.436
			c-3.372,1.208-9.315,2.758-17.833,4.651c-6.036,4.994-13.756,7.319-23.159,6.976c-9.582-0.347-14.286-3.617-14.107-9.817
			c0.174-5.854,4.638-8.786,13.389-8.786c-0.524,0,4.025,1.381,13.654,4.135c5.598-3.271,9.361-9.903,11.287-19.896
			c0-8.269,0-18.604,0-31.006c0.424-1.893,0.957-4.994,1.598-9.303c-15.797,12.403-37.531,29.457-65.215,51.16
			c-0.176,0.174-0.754,0.089-1.73-0.258c-0.974-0.344-1.551-0.687-1.73-1.033c0.18-1.721,0.444-2.753,0.799-3.102
			c19.519-15.672,36.555-29.023,51.107-40.049c4.966-4.304,10.734-9.213,17.301-14.728c1.065-3.443,3.37-6.673,6.922-9.689
			c3.548-3.012,7.095-4.521,10.647-4.521c2.836-0.169,4.612,1.55,5.323,5.167c0.532,3.101-0.665,5.426-3.593,6.977
			c-2.929,1.55-6.614,3.617-11.047,6.201c-1.776,2.757-2.662,6.806-2.662,12.144c0,3.101,0.44,8.054,1.331,14.856
			c0.886,6.807,1.331,11.671,1.331,14.599c0,10.166-2.396,18.002-7.188,23.513c4.791-0.687,8.959-1.893,12.511-3.617
			c13.309-6.371,23.245-13.521,29.813-21.445c0.532-0.687,1.152-0.687,1.864,0C593.152,202.793,593.061,203.485,592.354,204.17z"/>
	</g>
</g>
</svg>
