<?xml version="1.0" encoding="utf-8"?>
<!-- Generator: Adobe Illustrator 16.0.0, SVG Export Plug-In . SVG Version: 6.00 Build 0)  -->
<!DOCTYPE svg PUBLIC "-//W3C//DTD SVG 1.1//EN" "http://www.w3.org/Graphics/SVG/1.1/DTD/svg11.dtd">
<svg version="1.1" id="Camada_1" xmlns="http://www.w3.org/2000/svg" xmlns:xlink="http://www.w3.org/1999/xlink" x="0px" y="0px"
	 width="156.998px" height="156.998px" viewBox="8.931 12.494 156.998 156.998"
	 enable-background="new 8.931 12.494 156.998 156.998" xml:space="preserve">
<g>
	<g>
		<path fill="#CB666B" d="M41.678,31.311v43.231h21.599v10.833H30.844V31.311H41.678z"/>
		<path fill="#CB666B" d="M81.37,31.311h10.834v54.064H81.37V31.311z"/>
		<path fill="#CB666B" d="M126.479,86.381l-24.282-55.07h2.146h7.109h0.437h1.743l12.813,29.48l12.813-29.48h2.281h9.289
			L126.479,86.381z"/>
		<path fill="#CB666B" d="M30.033,96.243h17.574c5.199,0,10.33,1.812,14.053,5.533c3.723,3.723,5.232,7.211,5.232,12.41v1.676
			c0,4.025-1.141,6.978-3.421,10.197c-2.281,3.219-4.192,4.157-7.748,5.5l12.209,18.814H54.717L40.9,129.245v21.13H30.067
			L30.033,96.243z M48.614,122.303c2.247,0,3.387-0.569,4.963-2.146c1.577-1.576,2.146-3.387,2.146-5.635
			c0-2.213-0.569-3.689-2.146-5.299c-1.576-1.609-4.394-2.181-6.641-2.181h-6.07v15.228L48.614,122.303z"/>
		<path fill="#CB666B" d="M103.958,96.311v10.799H82.36v10.834h16.199v10.799H82.36v10.8h21.599v10.833H82.36H71.527V96.311H103.958
			z"/>
		<path fill="#CB666B" d="M126.468,139.644c2.984,0,5.468-2.481,5.468-5.468c0-2.313-0.905-3.79-2.75-4.461
			c-3.892-1.442-2.952-1.106-6.741-2.415c-3.99-1.375-7.681-4.091-10.162-7.479c-1.477-2.014-2.214-4.494-2.214-7.479
			c0-4.493,1.609-8.352,4.829-11.569c3.221-3.222,7.077-4.831,11.604-4.831c4.494,0,8.353,1.609,11.572,4.831
			c3.219,3.219,4.828,7.076,4.828,11.569h-10.898c0-2.95-2.482-5.434-5.435-5.434c-2.985,0-5.467,2.481-5.467,5.467
			c0,1.944,0.771,3.422,2.349,4.429c3.219,2.078,2.85,1.676,6.707,2.816c4.158,1.207,7.916,3.79,10.497,7.109
			c1.511,1.945,2.281,4.461,2.281,7.514c0,4.527-1.61,8.385-4.83,11.604s-7.076,4.829-11.571,4.829
			c-4.527,0-8.384-1.608-11.604-4.829c-3.221-3.22-4.83-7.076-4.83-11.604h10.934c0,3.02,2.448,5.467,5.467,5.467L126.468,139.644z"
			/>
	</g>
	<g>
		<path fill="#CB666B" d="M165.929,169.492H8.931V12.494h156.998V169.492z M13.931,164.492h146.998V17.494H13.931V164.492z"/>
	</g>
</g>
</svg>
