<?xml version="1.0" encoding="utf-8"?>
<!-- Generator: Adobe Illustrator 16.0.0, SVG Export Plug-In . SVG Version: 6.00 Build 0)  -->
<!DOCTYPE svg PUBLIC "-//W3C//DTD SVG 1.1//EN" "http://www.w3.org/Graphics/SVG/1.1/DTD/svg11.dtd">
<svg version="1.1" id="Camada_1" xmlns="http://www.w3.org/2000/svg" xmlns:xlink="http://www.w3.org/1999/xlink" x="0px" y="0px"
	 width="283.486px" height="136.494px" viewBox="0 0 283.486 136.494" enable-background="new 0 0 283.486 136.494"
	 xml:space="preserve">
<g>
	<polygon fill="#EED163" points="30.418,23.054 19.585,23.054 19.585,77.118 52.017,77.118 52.017,66.285 30.418,66.285 	"/>
	<rect x="56.046" y="23.054" fill="#EED163" width="10.834" height="54.064"/>
	<polygon fill="#EED163" points="107.968,23.054 95.155,52.534 82.344,23.054 80.6,23.054 80.164,23.054 73.054,23.054 
		70.907,23.054 95.189,78.125 119.538,23.054 110.248,23.054 	"/>
	<path fill="#EED163" d="M156.975,52.803c2.279-3.22,3.42-6.171,3.42-10.196V40.93c0-5.198-1.51-8.687-5.232-12.409
		s-8.854-5.534-14.053-5.534h-17.574l0.033,54.131h10.833V55.989l13.818,21.129h13.215l-12.209-18.815
		C152.782,56.961,154.694,56.022,156.975,52.803z M147.081,46.9c-1.576,1.576-2.717,2.146-4.963,2.146l-7.748-0.034V33.786h6.07
		c2.246,0,5.064,0.57,6.641,2.18s2.146,3.086,2.146,5.299C149.227,43.512,148.657,45.323,147.081,46.9z"/>
	<polygon fill="#EED163" points="166.471,77.118 177.305,77.118 198.905,77.118 198.905,66.285 177.305,66.285 177.305,55.486 
		193.504,55.486 193.504,44.686 177.305,44.686 177.305,33.853 198.905,33.853 198.905,23.054 166.471,23.054 	"/>
	<path fill="#EED163" d="M223.663,46.363c-3.857-1.141-3.488-0.738-6.709-2.817c-1.576-1.006-2.348-2.482-2.348-4.427
		c0-2.985,2.482-5.467,5.467-5.467c2.951,0,5.434,2.482,5.434,5.433h10.9c0-4.494-1.609-8.351-4.83-11.571
		c-3.219-3.22-7.076-4.83-11.57-4.83c-4.527,0-8.385,1.61-11.605,4.83c-3.219,3.22-4.828,7.077-4.828,11.571
		c0,2.985,0.736,5.467,2.213,7.479c2.482,3.387,6.172,6.104,10.162,7.479c3.789,1.308,2.852,0.973,6.742,2.415
		c1.844,0.671,2.75,2.146,2.75,4.461c0,2.985-2.482,5.467-5.467,5.467l0.033,0.067c-3.02,0-5.467-2.448-5.467-5.467h-10.934
		c0,4.528,1.609,8.385,4.83,11.604c3.219,3.22,7.076,4.83,11.604,4.83c4.494,0,8.352-1.61,11.57-4.83
		c3.221-3.22,4.83-7.077,4.83-11.604c0-3.052-0.771-5.567-2.281-7.513C231.577,50.153,227.821,47.57,223.663,46.363z"/>
	<path fill="#EED163" d="M206.109,106.458c-0.327,1.27-1.265,4.409-2.812,9.418h5.668c-1.458-4.691-2.279-7.345-2.463-7.96
		S206.188,106.815,206.109,106.458z"/>
	<path fill="#EED163" d="M225.656,106.95h-2.455v14.164h1.979c4.443,0,6.665-2.386,6.665-7.156
		C231.845,109.286,229.782,106.95,225.656,106.95z"/>
	<path fill="#EED163" d="M188.28,107.604c-0.709-0.436-1.807-0.654-3.295-0.654h-1.398v5.877h1.488c1.457,0,2.533-0.243,3.229-0.729
		c0.693-0.485,1.041-1.249,1.041-2.291C189.344,108.774,188.989,108.041,188.28,107.604z"/>
	<path fill="#EED163" d="M259.125,106.667c-1.835,0-3.219,0.617-4.15,1.853c-0.933,1.235-1.398,3.067-1.398,5.497
		c0,2.431,0.461,4.261,1.383,5.49c0.923,1.23,2.301,1.846,4.137,1.846c3.68,0,5.52-2.445,5.52-7.336
		C264.616,109.117,262.786,106.667,259.125,106.667z"/>
	<path fill="#EED163" d="M247.641,91.506V8.9H4.153v87.591H166.62v39.146h113.456V91.506H247.641z M9.153,91.491V13.9h233.488
		v77.591H9.153z M212.223,96.549v0.313c-0.516,0.516-1.396,1.282-2.641,2.299c-1.244,1.018-2.219,1.773-2.924,2.27h-3.02v-0.402
		c1.705-1.983,2.871-3.477,3.496-4.479H212.223z M211.643,124.922l-1.576-5.178h-7.931l-1.577,5.178h-4.207h-0.762h-4.357
		l-5.191-8.347h-2.455v8.347h-4.612V103.17h6.338c2.956,0,5.143,0.538,6.562,1.614c1.418,1.076,2.127,2.71,2.127,4.902
		c0,1.28-0.352,2.418-1.057,3.415c-0.703,0.996-1.701,1.777-2.99,2.343c2.804,4.188,4.764,7.097,5.894,8.745l7.42-21.109h5.639
		l7.707,21.842H211.643z M233.579,122.066c-2.039,1.904-4.982,2.856-8.83,2.856h-6.16V103.17h6.83c3.551,0,6.308,0.938,8.271,2.813
		c1.964,1.874,2.945,4.492,2.945,7.855C236.635,117.418,235.617,120.161,233.579,122.066z M244.995,124.922h-4.612V103.17h4.612
		V124.922z M266.773,122.319c-1.785,1.934-4.345,2.9-7.677,2.9c-3.333,0-5.893-0.967-7.678-2.9
		c-1.785-1.935-2.678-4.711-2.678-8.332c0-3.62,0.895-6.385,2.686-8.295c1.79-1.908,4.357-2.863,7.699-2.863
		c3.343,0,5.899,0.962,7.67,2.886c1.771,1.925,2.656,4.692,2.656,8.302C269.452,117.618,268.559,120.384,266.773,122.319z"/>
</g>
</svg>
