<?xml version="1.0" encoding="utf-8"?>
<!-- Generator: Adobe Illustrator 16.0.0, SVG Export Plug-In . SVG Version: 6.00 Build 0)  -->
<!DOCTYPE svg PUBLIC "-//W3C//DTD SVG 1.1//EN" "http://www.w3.org/Graphics/SVG/1.1/DTD/svg11.dtd">
<svg version="1.1" id="Camada_1" xmlns="http://www.w3.org/2000/svg" xmlns:xlink="http://www.w3.org/1999/xlink" x="0px" y="0px"
	 width="513.699px" height="241.096px" viewBox="0 0 513.699 241.096" enable-background="new 0 0 513.699 241.096"
	 xml:space="preserve">
<g>
	<g>
		<g>
			<g>
				<polygon fill="#252D35" points="117.408,24.105 117.408,46.105 200.408,46.105 200.408,212.105 117.408,212.105 
					117.408,234.105 222.408,234.105 222.408,24.105 				"/>
			</g>
			<path fill="#252D35" d="M162.629,194.979l15.557-15.557l-11.455-11.455c9.163-11.075,14.677-25.273,14.677-40.737
				c0-35.289-28.711-64-64-64v22c23.158,0,42,18.842,42,42c0,9.395-3.102,18.078-8.332,25.082l-12.89-12.89l-15.557,15.557
				l10.992,10.992c-4.991,2.097-10.47,3.259-16.214,3.259v22c11.879,0,23.004-3.264,32.547-8.925L162.629,194.979z"/>
		</g>
	</g>
	<g>
		<g>
			<polygon fill="#4DA18C" points="12.408,14.105 12.408,224.105 117.408,224.105 117.408,202.105 34.408,202.105 34.408,36.105 
				117.408,36.105 117.408,14.105 			"/>
			<path fill="#4DA18C" d="M53.408,117.23c0,35.29,28.711,64,64,64v-22c-23.158,0-42-18.841-42-42c0-23.158,18.842-42,42-42v-22
				C82.119,53.23,53.408,81.941,53.408,117.23z"/>
		</g>
	</g>
	<g>
		<g>
			<path fill="#252D35" d="M349.166,62.663v83.141c0,9.492-2.125,17.813-6.373,24.96c-4.248,7.149-10.385,12.627-18.412,16.436
				s-17.52,5.713-28.475,5.713c-16.523,0-29.355-4.232-38.495-12.7c-9.14-8.466-13.71-20.052-13.71-34.76v-82.79h27.157v78.66
				c0,9.902,1.991,17.168,5.976,21.795c3.984,4.63,10.576,6.943,19.775,6.943c8.904,0,15.365-2.328,19.379-6.986
				c4.012-4.658,6.02-11.967,6.02-21.928V62.663H349.166z"/>
			<path fill="#252D35" d="M371.269,191.155V62.663h27.245v128.492H371.269z"/>
			<path fill="#252D35" d="M505.253,191.155h-95.621v-17.666l61.609-88.327h-59.939V62.663h92.281V80.24l-61.521,88.415h63.191
				V191.155z"/>
		</g>
	</g>
</g>
</svg>
